<svg width="98" height="30" viewBox="0 0 98 30" fill="none" xmlns="http://www.w3.org/2000/svg">
<path d="M28.2892 21.2617C28.1372 20.896 27.9946 20.5117 27.8425 20.1835L27.1392 18.6179L27.1107 18.5898C25.0198 14.0898 22.7864 9.51478 20.4199 5.01478L20.3248 4.82728C20.0872 4.38665 19.8496 3.89915 19.6025 3.44915C19.2984 2.91478 19.0038 2.3429 18.5191 1.79915C18.0466 1.23022 17.452 0.771831 16.7781 0.457081C16.1043 0.142331 15.368 -0.0209351 14.6224 -0.0209351C13.8768 -0.0209351 13.1406 0.142331 12.4667 0.457081C11.7928 0.771831 11.1982 1.23022 10.7258 1.79915C10.2791 2.3429 9.94643 2.91478 9.6423 3.44915C9.4047 3.93665 9.1671 4.41478 8.92 4.8554L8.82496 5.0429C6.49647 9.5429 4.225 14.1179 2.13411 18.6179L2.07709 18.6742C1.868 19.1617 1.6209 19.6679 1.3833 20.2117C1.23123 20.5398 1.07917 20.896 0.927102 21.2898C0.516558 22.3208 0.385459 23.4396 0.546724 24.5359C0.707989 25.6321 1.15605 26.668 1.84675 27.5414C2.53746 28.4148 3.44696 29.0956 4.48563 29.5168C5.52429 29.9379 6.65628 30.0847 7.77001 29.9429C8.83776 29.8043 9.86591 29.4534 10.7923 28.9117C12.0278 28.2273 13.2158 27.2335 14.5464 25.7992C15.877 27.2335 17.0935 28.2273 18.3005 28.921C19.4612 29.5931 20.7757 29.964 22.1211 29.9992C23.6791 30.0055 25.1869 29.4557 26.3661 28.4511C27.5452 27.4465 28.3161 26.055 28.5363 24.5335C28.7909 23.4402 28.7048 22.2965 28.2892 21.2523V21.2617ZM14.6414 22.8179C13.0067 20.7554 11.9423 18.8617 11.5811 17.2398C11.4315 16.6388 11.3992 16.0152 11.4861 15.4023C11.5526 14.9242 11.7332 14.5023 11.9803 14.146C12.5505 13.3304 13.5485 12.8242 14.6414 12.8242C15.1605 12.8085 15.6753 12.9202 16.1398 13.1493C16.6043 13.3784 17.0038 13.7177 17.3026 14.1367C17.5497 14.5117 17.7302 14.9242 17.7873 15.4023C17.8823 15.946 17.8443 16.5742 17.6922 17.2398C17.3311 18.8335 16.2666 20.746 14.6414 22.8179ZM26.7496 24.2054C26.6416 24.9779 26.3303 25.7089 25.8467 26.3257C25.3631 26.9426 24.7241 27.4236 23.9934 27.721C23.2711 28.021 22.4728 28.1054 21.6934 28.021C20.9331 27.9273 20.1728 27.6835 19.3934 27.2335C18.0995 26.4446 16.9359 25.4645 15.9435 24.3273C17.9393 21.8898 19.1463 19.6679 19.6025 17.6898C19.8211 16.7523 19.8496 15.9085 19.7546 15.1304C19.6359 14.3929 19.3571 13.6893 18.9373 13.0679C18.4579 12.3941 17.818 11.8468 17.0739 11.474C16.3298 11.1013 15.5043 10.9146 14.6699 10.9304C12.9117 10.9304 11.3435 11.7367 10.3931 13.0585C9.96529 13.6784 9.68879 14.3875 9.58528 15.1304C9.46173 15.9179 9.49024 16.7898 9.73734 17.6898C10.1935 19.6679 11.4291 21.9179 13.3964 24.346C12.4208 25.5049 11.2545 26.4937 9.94643 27.271C9.1576 27.721 8.40678 27.9554 7.64646 28.0492C6.46404 28.1986 5.26964 27.8816 4.32286 27.1671C3.37608 26.4526 2.75345 25.3984 2.59031 24.2335C2.49527 23.4835 2.5618 22.7335 2.86593 21.8898C2.96097 21.5898 3.10353 21.2898 3.25559 20.9335C3.46468 20.446 3.71178 19.9398 3.94939 19.4335L3.9874 19.3679C6.04027 14.896 8.28323 10.3304 10.6117 5.85853L10.7068 5.67103C10.9444 5.22103 11.182 4.7429 11.4291 4.2929C11.6762 3.81478 11.9423 3.3554 12.2844 2.9804C12.5806 2.63167 12.9506 2.35122 13.3685 2.1588C13.7864 1.96637 14.242 1.86664 14.7032 1.86664C15.1644 1.86664 15.62 1.96637 16.0379 2.1588C16.4558 2.35122 16.8258 2.63167 17.122 2.9804C17.4546 3.3554 17.7302 3.81478 17.9773 4.2929C18.2149 4.7429 18.4525 5.2304 18.6997 5.67103L18.7947 5.85853C21.1137 10.3304 23.3566 14.896 25.4475 19.3679L25.476 19.396C25.7231 19.8835 25.9322 20.4273 26.1698 20.896C26.3219 21.2617 26.474 21.5523 26.569 21.8617C26.7496 22.7054 26.8446 23.4554 26.7496 24.2054ZM39.9792 22.6117C39.263 22.622 38.5537 22.4731 37.9038 22.1761C37.2539 21.8791 36.6802 21.4416 36.2251 20.896C35.2025 19.7335 34.6598 18.2345 34.7045 16.696C34.6888 15.124 35.249 13.5993 36.2821 12.4023C36.76 11.8497 37.3548 11.4072 38.0248 11.106C38.6947 10.8047 39.4235 10.652 40.1598 10.6585C40.8525 10.6398 41.5388 10.7952 42.1539 11.1101C42.7691 11.425 43.2929 11.889 43.6763 12.4585L43.7713 10.9867H46.5465V22.3117H43.7618L43.6668 20.6617C43.2715 21.2698 42.7253 21.7681 42.0799 22.1094C41.4345 22.4507 40.7114 22.6236 39.9792 22.6117ZM40.7015 19.9117C41.2527 19.9117 41.7374 19.7617 42.1936 19.4898C42.6118 19.1898 42.954 18.796 43.2201 18.3179C43.4577 17.8398 43.5812 17.2679 43.5812 16.6304C43.6183 16.0767 43.509 15.523 43.2641 15.0235C43.0192 14.5239 42.6471 14.0956 42.1841 13.7804C41.7393 13.507 41.2256 13.3621 40.7015 13.3621C40.1774 13.3621 39.6637 13.507 39.2189 13.7804C38.8007 14.0804 38.4585 14.4742 38.1924 14.9523C37.9411 15.4796 37.8175 16.0573 37.8313 16.6398C37.7942 17.1935 37.9035 17.7472 38.1484 18.2467C38.3933 18.7463 38.7654 19.1746 39.2284 19.4898C39.6751 19.7617 40.1598 19.9117 40.7015 19.9117ZM51.2985 7.9304C51.2985 8.25853 51.2415 8.55853 51.0894 8.80228C50.9373 9.03666 50.7283 9.25228 50.4526 9.40228C50.177 9.55228 49.8824 9.60853 49.5783 9.60853C49.2741 9.60853 48.97 9.55228 48.6944 9.40228C48.4337 9.25913 48.2145 9.05259 48.0576 8.80228C47.9104 8.53522 47.8383 8.23421 47.8485 7.9304C47.8485 7.5929 47.9151 7.2929 48.0576 7.05853C48.2097 6.77728 48.4283 6.60853 48.6944 6.45853C48.97 6.30853 49.2646 6.2429 49.5783 6.2429C49.8808 6.23603 50.1799 6.3067 50.4465 6.44802C50.713 6.58934 50.9378 6.79647 51.0989 7.04915C51.2372 7.32248 51.3057 7.625 51.2985 7.9304ZM48.0671 22.2742V10.9679H51.0894V22.2929H48.0576L48.0671 22.2742ZM59.1678 13.9304V13.9679C59.0253 13.9023 58.8352 13.8742 58.6926 13.846C58.5026 13.8085 58.3505 13.8085 58.1699 13.8085C57.3241 13.8085 56.6873 14.0523 56.2691 14.5585C55.8129 15.0742 55.6038 15.796 55.6038 16.7242V22.2835H52.572V10.9585H55.3567L55.4518 12.6742C55.7559 12.0742 56.117 11.6242 56.6303 11.2867C57.1408 10.9587 57.7417 10.795 58.3505 10.8179C58.5691 10.8179 58.7782 10.8367 58.9588 10.8742C59.0538 10.9023 59.1108 10.9023 59.1678 10.9304V13.9304ZM60.3844 22.2742V6.3179H63.4067V12.4117C63.8343 11.8679 64.319 11.446 64.9273 11.1179C65.8902 10.6522 66.9842 10.5201 68.0326 10.7429C69.081 10.9657 70.0227 11.5305 70.7057 12.346C71.7306 13.511 72.2734 15.0137 72.2264 16.5554C72.242 18.1274 71.6818 19.6521 70.6487 20.8492C70.1709 21.4017 69.576 21.8442 68.9061 22.1455C68.2361 22.4467 67.5073 22.5995 66.7711 22.5929C66.0783 22.6116 65.3921 22.4562 64.7769 22.1413C64.1618 21.8265 63.6379 21.3624 63.2546 20.7929L63.1595 22.2648L60.3844 22.2929V22.2742ZM66.2293 19.9117C66.7711 19.9117 67.2558 19.7617 67.712 19.4898C68.1302 19.1898 68.4723 18.796 68.7384 18.3179C68.9855 17.8398 69.0996 17.2679 69.0996 16.6304C69.0996 16.0023 68.9855 15.4304 68.7384 14.9523C68.4888 14.4912 68.1382 14.0909 67.712 13.7804C67.2671 13.507 66.7535 13.3621 66.2293 13.3621C65.7052 13.3621 65.1916 13.507 64.7467 13.7804C64.319 14.0804 63.9864 14.4742 63.7108 14.9523C63.4594 15.4796 63.3358 16.0573 63.3496 16.6398C63.3126 17.1935 63.4218 17.7472 63.6667 18.2467C63.9116 18.7463 64.2837 19.1746 64.7467 19.4898C65.1934 19.7617 65.6781 19.9117 66.2293 19.9117ZM73.3669 22.2835V10.9585H76.1516L76.2466 12.4304C76.5965 11.8662 77.0929 11.4045 77.6844 11.093C78.2759 10.7814 78.9411 10.6315 79.611 10.6585C80.3771 10.6455 81.1302 10.8555 81.7759 11.2624C82.4216 11.6692 82.9315 12.2549 83.2416 12.946C83.5742 13.6585 83.7548 14.5398 83.7548 15.5242V22.3117H80.723V15.9179C80.723 15.1304 80.5424 14.5117 80.1813 14.0523C79.8201 13.6023 79.3259 13.3585 78.6986 13.3585C78.2424 13.3585 77.8433 13.4523 77.4916 13.6585C77.159 13.8742 76.8834 14.146 76.6743 14.5304C76.4629 14.9189 76.358 15.3552 76.3702 15.796V22.2835H73.3669ZM85.2659 22.2835V6.30853H88.2977V12.4023C88.7084 11.8555 89.2426 11.4107 89.8579 11.1031C90.4733 10.7955 91.1529 10.6337 91.8427 10.6304C92.5589 10.6201 93.2682 10.7689 93.9181 11.0659C94.568 11.3629 95.1418 11.8004 95.5968 12.346C96.6143 13.5109 97.1534 15.009 97.108 16.546C97.1245 18.1182 96.5641 19.6432 95.5303 20.8398C95.0524 21.3923 94.4576 21.8348 93.7876 22.1361C93.1177 22.4374 92.3889 22.5901 91.6526 22.5835C90.9599 22.6022 90.2736 22.4468 89.6585 22.132C89.0433 21.8171 88.5195 21.3531 88.1362 20.7835L88.0506 22.2554L85.2659 22.2835ZM91.1394 19.9117C91.6907 19.9117 92.1754 19.7617 92.6221 19.4898C93.0497 19.1898 93.3824 18.796 93.658 18.3179C93.8956 17.8398 94.0191 17.2679 94.0191 16.6304C94.0562 16.0767 93.9469 15.523 93.702 15.0235C93.4572 14.5239 93.085 14.0956 92.6221 13.7804C92.1772 13.507 91.6636 13.3621 91.1394 13.3621C90.6153 13.3621 90.1016 13.507 89.6568 13.7804C89.2386 14.0804 88.8965 14.4742 88.6304 14.9523C88.3651 15.4749 88.2407 16.056 88.2692 16.6398C88.2322 17.1935 88.3414 17.7472 88.5863 18.2467C88.8312 18.7463 89.2033 19.1746 89.6663 19.4898C90.113 19.7617 90.5692 19.9117 91.1394 19.9117Z" fill="#FF385C"/>
</svg>
