<svg width="95" height="30" viewBox="0 0 95 30" fill="none" xmlns="http://www.w3.org/2000/svg">
<path d="M70.4307 28.2209L78.2797 19.5616L70.4307 10.9011H78.7122L82.5997 15.1078L86.3431 10.9011H94.3357L86.524 19.5259L94.4429 28.2209H86.1274L82.2752 23.9796L78.4593 28.2209H70.4307Z" fill="#FF6600"/>
<path d="M70.4305 7.01865H61.5409V10.9011H70.4305V16.7523H61.5409V22.123H70.4305V28.2209H55.0071V0.937622H70.4305V7.01865Z" fill="#FF6600"/>
<path d="M48.5009 0.937622V12.1032H48.4293C46.9889 10.4776 45.1892 9.91271 43.101 9.91271C38.8236 9.91271 35.6015 12.7678 34.4704 16.5426C33.1806 12.3833 29.8542 9.83476 24.9216 9.83476C20.9158 9.83476 17.7527 11.6002 16.1019 14.477V10.9015H7.82203V7.01945H16.8577V0.937622H0.441162V28.2213H7.82203V16.7523H15.1788C14.9594 17.5949 14.8424 18.4969 14.8424 19.4487C14.8424 25.14 19.2704 29.1333 24.9216 29.1333C29.6737 29.1333 32.8054 26.9428 34.4618 22.949H28.1367C27.2811 24.1488 26.6321 24.5052 24.9216 24.5052C22.9381 24.5052 21.2281 22.806 21.2281 20.7919H34.1075C34.666 25.3124 38.2523 29.2109 43.1738 29.2109C45.2968 29.2109 47.2406 28.1855 48.4293 26.4542H48.5009V28.2205H55.0073V0.937622H48.5009ZM21.4335 16.8339C21.8439 15.101 23.2127 13.9683 24.9216 13.9683C26.8027 13.9683 28.1019 15.066 28.4436 16.8339C28.5877 16.8339 21.4335 16.8339 21.4335 16.8339ZM44.5525 24.0668C42.1541 24.0668 40.6638 21.8727 40.6638 19.5817C40.6638 17.1328 41.9601 14.7779 44.5525 14.7779C47.2405 14.7779 48.3114 17.1328 48.3114 19.5817C48.311 21.904 47.1763 24.0668 44.5525 24.0668Z" fill="#652C8F"/>
</svg>
