<svg width="90" height="30" viewBox="0 0 90 30" fill="none" xmlns="http://www.w3.org/2000/svg">
<g clip-path="url(#clip0_1_2711)">
<path d="M38.3138 15.3849C38.3138 19.549 35.0299 22.6175 30.9998 22.6175C26.9697 22.6175 23.6858 19.549 23.6858 15.3849C23.6858 11.1914 26.9697 8.15228 30.9998 8.15228C35.0299 8.15228 38.3138 11.1914 38.3138 15.3849ZM35.1121 15.3849C35.1121 12.7827 33.2088 11.0023 30.9998 11.0023C28.7908 11.0023 26.8875 12.7827 26.8875 15.3849C26.8875 17.961 28.7908 19.7675 30.9998 19.7675C33.2088 19.7675 35.1121 17.9577 35.1121 15.3849Z" fill="#EA4335"/>
<path d="M54.0924 15.3849C54.0924 19.549 50.8085 22.6175 46.7784 22.6175C42.7483 22.6175 39.4644 19.549 39.4644 15.3849C39.4644 11.1947 42.7483 8.15228 46.7784 8.15228C50.8085 8.15228 54.0924 11.1914 54.0924 15.3849ZM50.8906 15.3849C50.8906 12.7827 48.9874 11.0023 46.7784 11.0023C44.5694 11.0023 42.6661 12.7827 42.6661 15.3849C42.6661 17.961 44.5694 19.7675 46.7784 19.7675C48.9874 19.7675 50.8906 17.9577 50.8906 15.3849Z" fill="#FBBC05"/>
<path d="M69.2135 8.58924V21.574C69.2135 26.9153 66.0381 29.0968 62.2841 29.0968C58.7503 29.0968 56.6235 26.7523 55.8214 24.8349L58.609 23.6838C59.1054 24.861 60.3216 26.2501 62.2808 26.2501C64.6837 26.2501 66.1728 24.7795 66.1728 22.011V20.9708H66.0611C65.3445 21.8479 63.9638 22.6142 62.2216 22.6142C58.5761 22.6142 55.2363 19.4642 55.2363 15.411C55.2363 11.3284 58.5761 8.15228 62.2216 8.15228C63.9606 8.15228 65.3412 8.91859 66.0611 9.76967H66.1728V8.5925H69.2135V8.58924ZM66.3997 15.411C66.3997 12.8642 64.687 11.0023 62.5076 11.0023C60.2986 11.0023 58.4479 12.8642 58.4479 15.411C58.4479 17.9316 60.2986 19.7675 62.5076 19.7675C64.687 19.7675 66.3997 17.9316 66.3997 15.411Z" fill="#4285F4"/>
<path d="M74.2266 0.978394V22.174H71.1038V0.978394H74.2266Z" fill="#34A853"/>
<path d="M86.3958 17.7654L88.8809 19.4088C88.0788 20.586 86.146 22.6143 82.8062 22.6143C78.6643 22.6143 75.571 19.4382 75.571 15.3817C75.571 11.0806 78.6906 8.14905 82.4479 8.14905C86.2314 8.14905 88.0821 11.136 88.687 12.7501L89.019 13.5719L79.2724 17.5762C80.0186 19.0273 81.179 19.7675 82.8062 19.7675C84.4366 19.7675 85.5674 18.9719 86.3958 17.7654ZM78.7465 15.1632L85.2617 12.4795C84.9034 11.5762 83.8252 10.9469 82.5563 10.9469C80.9292 10.9469 78.6643 12.3719 78.7465 15.1632Z" fill="#EA4335"/>
<path d="M11.8652 13.5034V10.4349H22.2889C22.3908 10.9697 22.4434 11.6023 22.4434 12.2871C22.4434 14.5893 21.809 17.436 19.7644 19.4643C17.7756 21.5186 15.2346 22.6143 11.8685 22.6143C5.62942 22.6143 0.383057 17.5729 0.383057 11.3838C0.383057 5.19469 5.62942 0.153381 11.8685 0.153381C15.3201 0.153381 17.7789 1.49686 19.6263 3.24795L17.4436 5.41316C16.1189 4.18056 14.3241 3.22186 11.8652 3.22186C7.30918 3.22186 3.74586 6.86425 3.74586 11.3838C3.74586 15.9034 7.30918 19.5458 11.8652 19.5458C14.8204 19.5458 16.5035 18.3686 17.5817 17.299C18.4561 16.4316 19.0313 15.1925 19.2581 13.5001L11.8652 13.5034Z" fill="#4285F4"/>
</g>
<defs>
<clipPath id="clip0_1_2711">
<rect width="89.4118" height="30" fill="white" transform="translate(0.264648 0.00012207)"/>
</clipPath>
</defs>
</svg>
