<svg width="115" height="26" viewBox="0 0 115 26" fill="none" xmlns="http://www.w3.org/2000/svg">
<g clip-path="url(#clip0_1_2702)">
<path d="M40.6185 14.8519L39.9341 16.7792H39.8771C39.763 16.3446 39.5539 15.6833 39.2117 14.8897L35.5427 5.72542H31.9497V20.3315H34.326V11.3184C34.326 10.7516 34.326 10.1091 34.307 9.31554C34.288 8.91874 34.25 8.61641 34.231 8.38967H34.288C34.4021 8.95653 34.5351 9.37222 34.6302 9.63676L39.0406 20.2937H40.7136L45.086 9.54228C45.181 9.29664 45.2761 8.80536 45.3711 8.38967H45.4282C45.3711 9.4667 45.3331 10.4304 45.3141 11.0161V20.2748H47.8425V5.68763H44.3826L40.6185 14.8519ZM50.2378 9.80682H52.7092V20.2748H50.2378V9.80682ZM51.4925 5.38531C51.0743 5.38531 50.7321 5.53647 50.4469 5.801C50.1618 6.06554 50.0097 6.40565 50.0097 6.82135C50.0097 7.21815 50.1618 7.55827 50.4469 7.8228C50.7321 8.08734 51.0743 8.21961 51.4925 8.21961C51.9107 8.21961 52.2719 8.06844 52.5381 7.8228C52.8233 7.55827 52.9753 7.21815 52.9753 6.82135C52.9753 6.42455 52.8233 6.08443 52.5381 5.801C52.291 5.53647 51.9298 5.38531 51.4925 5.38531ZM61.473 9.71234C61.0168 9.61786 60.5415 9.56118 60.0853 9.56118C58.9637 9.56118 57.9371 9.80682 57.0816 10.2981C56.2261 10.7894 55.5418 11.4696 55.1045 12.3199C54.6483 13.1891 54.4201 14.1905 54.4201 15.3432C54.4201 16.3446 54.6483 17.2327 55.0855 18.0452C55.5227 18.8388 56.1311 19.4812 56.9485 19.9158C57.728 20.3504 58.6405 20.5772 59.667 20.5772C60.8457 20.5772 61.8533 20.3315 62.6517 19.878L62.6707 19.8591V17.5917L62.5757 17.6673C62.2145 17.9318 61.7962 18.1586 61.378 18.2908C60.9407 18.442 60.5415 18.5176 60.1993 18.5176C59.2108 18.5176 58.4314 18.2341 57.8801 17.6106C57.3097 17.0059 57.0246 16.1746 57.0246 15.1353C57.0246 14.0583 57.3097 13.208 57.8991 12.5844C58.4884 11.9609 59.2678 11.6397 60.2183 11.6397C61.0168 11.6397 61.8342 11.9042 62.5757 12.4333L62.6707 12.5089V10.1091L62.6517 10.0902C62.3285 9.95798 61.9673 9.80682 61.473 9.71234ZM69.6285 9.63676C69.0202 9.63676 68.4499 9.82571 67.9556 10.2225C67.5374 10.5626 67.2522 11.0539 67.0051 11.6397H66.9861V9.80682H64.5147V20.2748H66.9861V14.9275C66.9861 14.0205 67.1762 13.2647 67.5944 12.7167C68.0127 12.1498 68.545 11.8664 69.1913 11.8664C69.4194 11.8664 69.6476 11.9231 69.9327 11.9609C70.1989 12.0365 70.389 12.112 70.522 12.2065L70.6171 12.2821V9.82571L70.5601 9.80682C70.389 9.69344 70.0468 9.63676 69.6285 9.63676ZM76.3583 9.58007C74.6283 9.58007 73.2406 10.0902 72.271 11.0917C71.2825 12.0932 70.8072 13.4725 70.8072 15.2109C70.8072 16.8359 71.3015 18.1586 72.252 19.1222C73.2025 20.067 74.4952 20.5583 76.1111 20.5583C77.8031 20.5583 79.1528 20.0481 80.1224 19.0277C81.1109 18.0074 81.5862 16.6469 81.5862 14.9652C81.5862 13.3025 81.1299 11.9798 80.1984 11.0161C79.3049 10.0525 77.9932 9.58007 76.3583 9.58007ZM78.3354 17.6295C77.8791 18.2152 77.1567 18.4987 76.2632 18.4987C75.3697 18.4987 74.6473 18.2152 74.134 17.5917C73.6208 17.0059 73.3736 16.1557 73.3736 15.0786C73.3736 13.9638 73.6398 13.1135 74.134 12.5089C74.6473 11.9042 75.3507 11.6019 76.2442 11.6019C77.1187 11.6019 77.8031 11.8853 78.2973 12.4711C78.7916 13.0568 79.0578 13.9071 79.0578 15.0219C79.0197 16.1557 78.8106 17.0437 78.3354 17.6295ZM87.0992 14.1527C86.3198 13.8315 85.8255 13.5859 85.5974 13.378C85.4073 13.1891 85.3122 12.9245 85.3122 12.5844C85.3122 12.301 85.4263 12.0176 85.7114 11.8286C85.9966 11.6397 86.3198 11.5452 86.795 11.5452C87.2133 11.5452 87.6505 11.6208 88.0687 11.7341C88.487 11.8475 88.8672 12.0176 89.1714 12.2443L89.2664 12.3199V10.0147L89.2094 9.99577C88.9242 9.8824 88.544 9.76903 88.0878 9.67455C87.6315 9.59897 87.2133 9.56118 86.8711 9.56118C85.6924 9.56118 84.7229 9.84461 83.9625 10.4682C83.2021 11.0539 82.8409 11.8475 82.8409 12.7734C82.8409 13.2647 82.9169 13.6993 83.088 14.0583C83.2591 14.4173 83.5062 14.7574 83.8484 15.0408C84.1906 15.3054 84.6849 15.6077 85.3693 15.8911C85.9396 16.1368 86.3768 16.3257 86.643 16.4769C86.9091 16.628 87.0802 16.7981 87.2133 16.9304C87.3083 17.0815 87.3654 17.2705 87.3654 17.5161C87.3654 18.2152 86.8331 18.5554 85.7495 18.5554C85.3312 18.5554 84.894 18.4798 84.3807 18.3097C83.8674 18.1397 83.3922 17.894 82.9929 17.6106L82.8979 17.535V19.9347L82.9549 19.9536C83.3161 20.1237 83.7534 20.237 84.2857 20.3693C84.818 20.4638 85.2932 20.5394 85.7114 20.5394C86.9852 20.5394 88.0307 20.2559 88.7721 19.6324C89.5326 19.0277 89.9318 18.253 89.9318 17.2516C89.9318 16.5525 89.7417 15.9289 89.3234 15.4565C88.7721 15.003 88.0878 14.5307 87.0992 14.1527ZM96.4524 9.58007C94.7224 9.58007 93.3347 10.0902 92.3651 11.0917C91.3956 12.0932 90.9013 13.4725 90.9013 15.2109C90.9013 16.8359 91.3956 18.1586 92.3461 19.1222C93.2966 20.067 94.5894 20.5583 96.2053 20.5583C97.8972 20.5583 99.2469 20.0481 100.216 19.0277C101.205 18.0074 101.68 16.6469 101.68 14.9652C101.68 13.3025 101.224 11.9798 100.293 11.0161C99.399 10.0525 98.0873 9.58007 96.4524 9.58007ZM98.4105 17.6295C97.9542 18.2152 97.2318 18.4987 96.3383 18.4987C95.4258 18.4987 94.7224 18.2152 94.2091 17.5917C93.6959 17.0059 93.4487 16.1557 93.4487 15.0786C93.4487 13.9638 93.7149 13.1135 94.2091 12.5089C94.7224 11.9042 95.4258 11.6019 96.3193 11.6019C97.1748 11.6019 97.8782 11.8853 98.3725 12.4711C98.8667 13.0568 99.1329 13.9071 99.1329 15.0219C99.1329 16.1557 98.8857 17.0437 98.4105 17.6295ZM114.893 11.8286V9.80682H112.402V6.70798L112.326 6.72687L109.969 7.426L109.912 7.4449V9.80682H106.186V8.48414C106.186 7.87949 106.338 7.40711 106.604 7.10478C106.87 6.80246 107.269 6.65129 107.764 6.65129C108.106 6.65129 108.467 6.72687 108.866 6.89693L108.961 6.95362V4.81844L108.904 4.79955C108.562 4.68618 108.106 4.6106 107.517 4.6106C106.775 4.6106 106.129 4.78065 105.539 5.06408C104.95 5.3853 104.513 5.8199 104.19 6.40565C103.866 6.97251 103.695 7.61496 103.695 8.35188V9.80682H101.965V11.8097H103.695V20.2748H106.186V11.8286H109.912V17.2138C109.912 19.4246 110.957 20.5394 113.049 20.5394C113.391 20.5394 113.752 20.4827 114.094 20.426C114.455 20.3504 114.721 20.2559 114.874 20.1804L114.893 20.1615V18.1397L114.798 18.2152C114.645 18.3097 114.512 18.3853 114.284 18.442C114.094 18.4987 113.923 18.5176 113.79 18.5176C113.296 18.5176 112.954 18.4042 112.706 18.1208C112.478 17.8562 112.364 17.4216 112.364 16.7792V11.8286H114.893Z" fill="#737373"/>
<path d="M0.0881348 0.812622H11.7416V12.3955H0.0881348V0.812622Z" fill="#F25022"/>
<path d="M12.9583 0.812622H24.6117V12.3955H12.9583V0.812622Z" fill="#7FBA00"/>
<path d="M0.0881348 13.6048H11.7416V25.1876H0.0881348V13.6048Z" fill="#00A4EF"/>
<path d="M12.9583 13.6048H24.6117V25.1876H12.9583V13.6048Z" fill="#FFB900"/>
</g>
<defs>
<clipPath id="clip0_1_2702">
<rect width="114.824" height="24.375" fill="white" transform="translate(0.0881348 0.812622)"/>
</clipPath>
</defs>
</svg>
