<svg width="93" height="32" viewBox="0 0 93 32" fill="none" xmlns="http://www.w3.org/2000/svg">
<path fill-rule="evenodd" clip-rule="evenodd" d="M81.6774 14.9135L75.807 25.0706L70.7986 25.0906L81.6774 5.97254L92.5155 25.0906H87.4277L81.6774 14.9125V14.9135ZM65.8704 20.6689H71.4799L68.8755 25.0906H61.5641L61.5839 19.7067V6.09008H65.8912L65.8714 20.6689H65.8704ZM50.486 6.09108C55.8346 6.111 60.1617 10.3544 60.1419 15.5998C60.1221 20.8263 55.7949 25.0706 50.4453 25.0706C45.1165 25.0507 40.7894 20.8074 40.7894 15.5609C40.8092 10.3344 45.1363 6.09108 50.486 6.09108ZM50.4661 20.65C53.3304 20.65 55.6333 18.3898 55.6333 15.5998C55.6541 12.8107 53.3304 10.5307 50.486 10.5307C47.6406 10.5107 45.3168 12.7908 45.3168 15.5809C45.297 18.3699 47.6207 20.65 50.4651 20.65H50.4661ZM32.8165 14.0907C32.7569 13.3038 32.5556 12.2629 32.2551 11.2618C31.6368 9.19403 30.5617 7.29308 29.1102 5.70061C28.3485 4.87584 27.4876 4.10885 26.2043 3.20539C25.226 2.72049 24.2641 2.2029 23.3202 1.65348C22.6993 1.29987 21.9575 0.866565 20.9766 0.552796C19.8136 0.277079 18.6248 0.125825 17.43 0.101565C16.2696 0.0617217 15.1063 0.161331 13.9846 0.376487C12.8024 0.572718 11.8205 0.886487 10.5183 1.20125C7.57275 2.47825 5.28968 4.40369 3.32596 6.95867C-3.52524 16.566 2.66543 30.0252 14.1046 31.616C15.988 31.872 17.8714 31.7734 19.6536 31.361L20.9161 31.0273C20.9558 31.0074 21.0163 30.9874 21.056 30.9874L22.499 30.4376C22.5783 30.3978 22.6388 30.3778 22.7192 30.339L23.3202 30.0641C24.4734 29.4925 25.5558 28.7871 26.5454 27.9623C25.6446 28.7844 24.6649 29.5147 23.6207 30.1428L23.6802 30.1826C23.8815 30.1228 24.061 30.0641 24.2614 30.0252C24.2614 30.0252 24.2614 30.339 24.2217 30.2802C23.9014 30.5163 24.4022 30.3001 25.0429 29.9655C25.6846 29.6318 26.3054 29.2184 26.8658 28.7472C27.688 28.0599 28.409 27.3129 29.4305 26.0956C30.4719 24.2678 31.7751 22.676 32.3761 20.5344C32.5764 19.9647 32.756 19.2973 32.877 18.609C32.996 17.9217 33.0773 17.2145 33.0773 16.4873C33.0575 15.7602 32.9771 15.0131 32.8165 14.0907ZM17.9914 30.2414C21.4973 29.6905 24.4419 27.7462 26.846 25.0936C27.5075 24.1303 28.0282 23.2458 28.6688 22.2836C29.4702 20.3183 29.4107 18.5701 29.6705 17.333C29.9919 15.0918 29.2302 13.2849 28.5895 11.3594C27.6076 9.1192 26.3054 7.44975 24.0214 6.15283C18.2512 2.57686 10.3983 3.57793 6.65238 8.92297C6.63254 8.92297 6.53138 9.06043 6.33104 9.33536C6.59188 8.23567 7.2534 7.58721 7.91392 6.95768C9.87764 5.34699 12.1617 4.06901 14.7661 3.44147C17.7117 3.1267 20.6354 3.44147 23.2597 4.71846C27.1871 6.95768 29.7915 10.4759 30.4521 14.6396V18.4914C29.6309 24.7987 24.2217 29.5929 17.9914 30.2414ZM32.3959 15.8976C32.2551 6.66383 23.1 0.435257 14.1849 1.69332C11.5805 2.34078 8.73511 3.6377 6.71189 5.44561C5.73003 6.09307 5.26984 7.29237 4.28798 8.25459C0.360544 14.012 1.04289 21.3801 5.93037 25.8605C6.5573 26.4831 7.22672 27.0609 7.93375 27.5898C3.84763 25.1324 2.00392 21.418 1.36323 16.9007C1.36323 15.289 1.68357 13.6972 2.02375 12.0866C4.30881 5.03223 11.5002 -0.0956611 19.3342 1.20125C20.6364 1.51602 21.9386 1.84971 23.2617 2.16448C24.9041 2.81194 26.5266 3.77516 27.8288 5.05315C29.131 6.32914 30.1129 7.94082 31.0947 9.53159C31.7553 10.8096 32.0766 12.4203 32.3969 13.6972C32.4564 14.4244 32.4564 15.1715 32.3969 15.8986L32.3959 15.8976Z" fill="#1D1E25"/>
<path fill-rule="evenodd" clip-rule="evenodd" d="M24.2622 16.036C24.2622 20.0054 20.9368 23.2278 16.8298 23.2278C12.7239 23.2278 9.39746 20.0054 9.39746 16.036C9.39746 12.0676 12.7229 8.84521 16.8298 8.84521C20.9368 8.84521 24.2622 12.0676 24.2622 16.037V16.036Z" fill="white"/>
<path fill-rule="evenodd" clip-rule="evenodd" d="M24.3029 14.8178C24.2027 14.268 24.042 13.8356 23.8824 13.227C23.2407 11.8903 22.2995 10.8494 21.0568 9.96483C16.4093 6.88092 10.0183 9.84729 9.33794 15.1136C9.07809 17.1965 9.81895 19.2006 11.141 20.7336C10.7403 20.3202 10.3 19.8889 9.99945 19.3968L9.95978 19.4367C9.99945 19.5542 10.1601 19.6329 10.1998 19.7505C10.1998 19.7505 10.0391 19.7505 10.0798 19.7305C9.95978 19.5941 10.06 19.8102 10.2395 20.1041C10.4001 20.3989 10.6005 20.6748 10.8405 20.9298C11.1817 21.3034 11.5417 21.6371 12.1427 22.0893C13.0254 22.5405 13.8059 23.1302 14.8274 23.4051C15.1081 23.4848 15.4284 23.5625 15.7498 23.6213C16.09 23.681 16.4103 23.701 16.7713 23.701C17.1115 23.701 17.4725 23.6611 17.9128 23.5814C18.3669 23.5277 18.8158 23.4361 19.2547 23.3075C20.2352 23.0111 21.1384 22.5009 21.8998 21.8134C22.2806 21.4607 22.8221 21.0085 23.2417 20.4188C23.5828 19.7514 23.6225 19.4168 23.7832 19.1219C23.9429 18.8271 24.1432 18.4934 24.284 18.0412C24.3988 17.5047 24.4659 16.959 24.4844 16.4105C24.4645 15.8607 24.4249 15.3298 24.3039 14.8188L24.3029 14.8178ZM19.5344 11.1641C20.2158 11.5566 20.3159 11.6154 19.9549 11.3604C20.4766 11.4779 20.7969 11.7727 21.1173 12.0676C21.8988 12.9521 22.5395 13.993 22.8598 15.1913C23.0403 16.547 22.8995 17.9027 22.3193 19.102C21.2779 20.9288 19.6147 22.1471 17.6312 22.4807C17.411 22.4807 17.171 22.4807 16.9498 22.5007C17.5112 22.4021 17.8722 22.0484 18.8937 21.6749C19.9946 21.2824 21.2373 19.4556 21.8393 18.3938C23.6017 15.5051 21.518 12.8336 19.5344 11.1641ZM15.7686 22.5196C12.7239 22.2058 10.3793 19.7106 10.059 16.8219C10.3386 18.4336 11.3007 19.6708 12.6029 20.7714C13.064 21.0663 13.7444 21.4787 14.2056 21.7735C14.9871 22.0684 15.4473 22.3831 16.209 22.5206H15.7686V22.5196ZM23.9617 17.2742C23.8228 17.8838 23.682 18.4725 23.5412 19.0821C23.2407 19.8291 22.8003 20.5951 22.1993 21.2038C21.5983 21.8134 20.8366 22.2845 20.0759 22.7367C19.4749 23.0505 18.7132 23.2079 18.0924 23.3643C17.7314 23.4041 17.3108 23.2467 16.9498 23.2278C21.398 23.1093 24.4427 18.9645 23.7822 14.8576C23.4608 13.6593 22.8202 12.6174 22.0386 11.5765C21.7183 11.1243 21.0965 10.8494 20.6363 10.3971C17.8514 8.64899 14.1659 9.0026 12.0624 11.3016C11.7674 11.6037 11.4927 11.9251 11.2402 12.2638C12.3629 10.6133 14.1659 9.45483 16.329 9.12014C17.0907 9.10022 17.8722 9.23867 18.6329 9.37613C21.999 10.3971 24.5032 13.6593 23.9617 17.2752V17.2742Z" fill="#D7DF23"/>
</svg>
