<svg width="81" height="30" viewBox="0 0 81 30" fill="none" xmlns="http://www.w3.org/2000/svg">
<g clip-path="url(#clip0_1_2732)">
<path d="M65.972 28.7252C73.4811 28.7252 79.591 22.5407 79.591 14.9402C79.591 7.33515 73.4811 1.15515 65.972 1.15515C58.4614 1.15515 52.353 7.33515 52.353 14.9402C52.353 22.5407 58.4614 28.7252 65.972 28.7252ZM65.972 10.0247C68.648 10.0247 70.8274 12.2297 70.8274 14.9387C70.8274 17.6476 68.6466 19.8497 65.9705 19.8497C63.2929 19.8497 61.1166 17.6477 61.1166 14.9372C61.1166 12.2252 63.2944 10.0217 65.9705 10.0217L65.972 10.0247ZM14.5897 28.7252C22.0988 28.7252 28.2087 22.5407 28.2087 14.9402C28.2087 7.33515 22.0988 1.15515 14.5897 1.15515C7.0821 1.15515 0.970703 7.33515 0.970703 14.9402C0.970703 22.5407 7.0821 28.7252 14.5897 28.7252ZM14.5897 10.0247C17.2673 10.0247 19.4451 12.2297 19.4451 14.9387C19.4451 17.6476 17.2673 19.8497 14.5897 19.8497C11.9136 19.8497 9.73728 17.6477 9.73728 14.9372C9.73728 12.2252 11.9151 10.0217 14.5897 10.0217V10.0247ZM40.2734 9.71415L36.0922 1.33515H26.3023L35.4463 19.6652V28.2947H45.1019V19.6652L54.2459 1.33515H44.4516L40.2749 9.71415H40.2734Z" fill="#EE2E24"/>
</g>
<defs>
<clipPath id="clip0_1_2732">
<rect width="79.0588" height="30" fill="white" transform="translate(0.970703 0.00012207)"/>
</clipPath>
</defs>
</svg>
