<svg width="113" height="28" viewBox="0 0 113 28" fill="none" xmlns="http://www.w3.org/2000/svg">
<g clip-path="url(#clip0_1_2727)">
<path d="M40.222 10.2119V11.6996H40.2679C40.8073 10.9031 41.7029 9.96507 43.6881 9.96507C45.2324 9.96507 46.4172 10.7451 46.9249 11.9234H46.9708C47.4045 11.3276 47.9016 10.8767 48.4587 10.5575C49.1181 10.179 49.8515 9.96178 50.7753 9.96178C52.8662 9.96178 54.7174 11.3112 54.7174 14.7143V21.1685H51.5299V15.1652C51.5299 13.4406 50.9022 12.4434 49.5976 12.4434C48.6421 12.4434 47.9475 13.0424 47.683 13.7796C47.5913 14.0331 47.549 14.3786 47.549 14.6683V21.1718H44.3615V14.9217C44.3615 13.4571 43.7586 12.4401 42.4716 12.4401C41.442 12.4401 40.7968 13.1971 40.5323 13.8455C40.4195 14.1219 40.3842 14.4412 40.3842 14.7407V21.1685H37.1932V10.2119H40.222ZM71.1696 10.2119V12.2788H71.2578C71.8431 10.699 73.2323 9.96507 74.4523 9.96507C74.7591 9.96507 74.9283 9.98811 75.1751 10.0342V12.9042C74.8825 12.8647 74.611 12.8252 74.2302 12.8252C72.848 12.8252 71.8854 13.5756 71.6421 14.7505C71.5892 14.9941 71.5716 15.2574 71.5716 15.5602V21.1718H68.2995V10.2119H71.1696ZM79.6179 6.58167V10.0309H82.3822V12.8219H79.6179V16.9392C79.6179 18.2722 79.981 18.9173 81.06 18.9173C81.5677 18.9173 81.9415 18.858 82.2659 18.7823L82.3082 21.0961C81.8745 21.2475 80.9507 21.412 80.0128 21.412C78.9091 21.412 77.9889 21.0533 77.4282 20.4971C76.7865 19.8619 76.4903 18.8218 76.4903 17.3408V6.58167H79.6179ZM34.9718 21.1685H31.7984V6.58167H34.9718V21.1685ZM26.5095 17.2552C26.5095 17.456 26.4918 17.6666 26.4319 17.8476C26.1851 18.6079 25.3424 19.2497 24.2916 19.2497C23.4136 19.2497 22.7155 18.7856 22.7155 17.8015C22.7155 16.2974 24.4926 15.8794 26.513 15.8893V17.2552H26.5095ZM29.6793 14.6321C29.6793 12.1472 28.544 9.96507 24.7042 9.96507C22.7331 9.96507 21.1676 10.4818 20.3143 10.9426L20.9384 12.9371C21.7176 12.4763 22.9623 12.0978 24.14 12.0978C26.0899 12.0945 26.4072 13.128 26.4072 13.7895V13.9475C22.1584 13.9409 19.4751 15.3134 19.4751 18.1109C19.4751 19.8191 20.8397 21.4186 23.2162 21.4186C24.6795 21.4186 25.8995 20.8756 26.6329 20.0034H26.7034C26.7034 20.0034 27.19 21.8959 29.8627 21.1718C29.7216 20.3819 29.6758 19.5426 29.6758 18.5322V14.6321H29.6793ZM3.53413 6.58167C3.86204 8.12526 4.7929 12.6079 4.7929 12.6079C5.18429 14.451 5.54394 16.383 5.81544 17.9101H5.86481C6.12925 16.2876 6.54532 14.7505 6.98959 12.8482L8.55866 6.58167H12.0318L13.4986 13.0095C13.8829 14.7966 14.1897 16.1757 14.433 17.8377H14.4788C14.7432 16.1592 15.0888 14.7242 15.4661 12.8877L16.8765 6.58167H20.2085L16.0796 21.1685C13.4492 21.705 12.4408 20.7176 12.0811 19.151C11.7215 17.581 11.0163 14.5959 11.0163 14.5959C10.6531 12.9601 10.371 11.8082 10.1736 10.1296H10.1242C9.84212 11.7917 9.54593 12.9568 9.10871 14.5926L7.37745 21.1718C4.69065 21.672 3.75979 20.9315 3.245 18.9206C2.80072 17.1992 0.0292969 6.58496 0.0292969 6.58496H3.53413V6.58167ZM63.0105 17.2552C63.0105 17.456 62.9928 17.6666 62.9329 17.8476C62.6861 18.6079 61.8434 19.2497 60.7926 19.2497C59.9147 19.2497 59.2165 18.7856 59.2165 17.8015C59.2165 16.2974 60.9936 15.8794 63.014 15.8893V17.2552H63.0105ZM66.1803 14.6321C66.1803 12.1472 65.045 9.96507 61.2052 9.96507C59.2341 9.96507 57.6686 10.4818 56.8153 10.9426L57.4394 12.9371C58.2187 12.4763 59.4633 12.0978 60.641 12.0978C62.5874 12.0945 62.9082 13.128 62.9082 13.7895V13.9475C58.6629 13.9409 55.9797 15.3134 55.9797 18.1109C55.9797 19.8191 57.3477 21.4186 59.7207 21.4186C61.1805 21.4186 62.404 20.8756 63.1339 20.0034H63.2079C63.2079 20.0034 63.6945 21.8959 66.3672 21.1718C66.2262 20.3819 66.1803 19.5426 66.1803 18.5322V14.6321Z" fill="#041E42"/>
<path d="M95.2461 16.1447C95.5589 16.6774 95.5378 17.2719 95.2039 17.5434L89.4328 21.4991C88.8318 21.8394 87.9321 21.427 87.4225 20.5643C86.9093 19.6983 87.0007 18.7325 87.6017 18.3923L93.9914 15.4848C94.392 15.3336 94.9333 15.612 95.2461 16.1447ZM102.841 16.1447C103.158 15.612 103.695 15.337 104.096 15.4814L110.489 18.3889C111.09 18.7291 111.178 19.6948 110.668 20.5609C110.155 21.4235 109.252 21.8325 108.655 21.4957L102.883 17.54C102.553 17.2719 102.528 16.6739 102.841 16.1447ZM99.0419 18.2892C99.671 18.2892 100.188 18.6054 100.258 19.0212L100.88 25.8879C100.88 26.5684 100.068 27.1251 99.0454 27.1251C98.0262 27.1251 97.2108 26.5684 97.2108 25.8879L97.8294 19.0212C97.8997 18.6054 98.4163 18.2892 99.0419 18.2892ZM102.883 10.4603L108.655 6.5011C109.252 6.16086 110.155 6.56984 110.668 7.4359C111.178 8.30197 111.09 9.2677 110.489 9.60794L104.096 12.5189C103.695 12.6632 103.154 12.3883 102.841 11.8556C102.528 11.3229 102.553 10.7283 102.883 10.4603ZM93.9914 12.5189L87.6017 9.60794C87.0042 9.2677 86.9128 8.30197 87.4225 7.4359C87.9321 6.56984 88.8353 6.16086 89.4328 6.5011L95.2039 10.4603C95.5378 10.7249 95.5589 11.3229 95.2461 11.8556C94.9333 12.3883 94.392 12.6632 93.9914 12.5189ZM97.8294 8.97901L97.2108 2.11236C97.2108 1.43188 98.0227 0.875122 99.0454 0.875122C100.068 0.875122 100.88 1.43188 100.88 2.11236L100.258 8.97901C100.188 9.39142 99.671 9.71104 99.0419 9.71104C98.4163 9.71104 97.8997 9.39142 97.8294 8.97901ZM112.229 21.4716V21.2998H112.387C112.44 21.2998 112.475 21.3342 112.475 21.3857C112.475 21.4338 112.44 21.4716 112.387 21.4716H112.229ZM112.099 21.7844C112.099 21.8016 112.113 21.8188 112.134 21.8188H112.201C112.218 21.8188 112.236 21.8016 112.236 21.7844V21.5885H112.345L112.433 21.7947C112.44 21.8084 112.45 21.8188 112.464 21.8188H112.545C112.57 21.8188 112.587 21.7947 112.577 21.7706C112.545 21.7088 112.514 21.6435 112.482 21.5782C112.535 21.561 112.616 21.5095 112.616 21.3857C112.616 21.2551 112.507 21.1795 112.398 21.1795H112.134C112.116 21.1795 112.099 21.1967 112.099 21.2139V21.7844ZM111.814 21.4991C111.814 21.2208 112.046 20.9939 112.331 20.9939C112.616 20.9939 112.847 21.2173 112.847 21.4991C112.847 21.7775 112.619 22.0043 112.331 22.0043C112.043 22.0043 111.814 21.7775 111.814 21.4991ZM111.691 21.4991C111.691 21.8428 111.976 22.1246 112.331 22.1246C112.682 22.1246 112.971 21.8428 112.971 21.4991C112.971 21.1555 112.682 20.8736 112.331 20.8736C111.976 20.8736 111.691 21.1555 111.691 21.4991Z" fill="#FFC124"/>
</g>
<defs>
<clipPath id="clip0_1_2727">
<rect width="112.941" height="26.25" fill="white" transform="translate(0.0292969 0.875122)"/>
</clipPath>
</defs>
</svg>
