<svg width="128" height="128" viewBox="0 0 128 128" fill="none" xmlns="http://www.w3.org/2000/svg">
<path d="M71.4261 8.06445L70.8525 11.2714C70.7051 11.4077 70.4877 11.5474 70.2002 11.6904C69.9172 11.8303 69.5561 11.9303 69.1167 11.9906C68.6774 12.0509 68.1481 12.0257 67.5291 11.915C67.0023 11.8208 66.5355 11.646 66.1288 11.3907C65.7228 11.1316 65.3911 10.8004 65.1339 10.3973C64.8805 9.99479 64.7116 9.53007 64.6273 9.00308C64.5437 8.47225 64.559 7.88769 64.6731 7.24938L64.7773 6.66683C64.8908 6.03237 65.0708 5.48122 65.3171 5.01339C65.5681 4.54239 65.8744 4.16069 66.2363 3.86827C66.5981 3.57585 67.0063 3.37902 67.4609 3.2778C67.9201 3.17342 68.4188 3.16938 68.9571 3.26567C69.6454 3.38879 70.1939 3.60594 70.6025 3.91713C71.0157 4.22515 71.3092 4.60305 71.4831 5.05082C71.6569 5.49859 71.7301 5.98787 71.7026 6.51867L70.2838 6.26487C70.2899 5.96438 70.2463 5.68674 70.153 5.43195C70.0635 5.17785 69.9074 4.96343 69.6847 4.78867C69.4665 4.61076 69.1633 4.48706 68.7749 4.4176C68.4404 4.35776 68.1349 4.36859 67.8584 4.45008C67.5819 4.53158 67.337 4.68025 67.1238 4.89608C66.9145 5.1126 66.7359 5.39017 66.588 5.7288C66.4401 6.06743 66.3256 6.46361 66.2444 6.91734L66.1382 7.51143C66.0556 7.97286 66.0304 8.39097 66.0626 8.76577C66.0986 9.14126 66.1869 9.46856 66.3275 9.74767C66.4718 10.0275 66.6673 10.2549 66.9137 10.4299C67.1609 10.6011 67.4537 10.717 67.7921 10.7775C68.1227 10.8366 68.3986 10.8582 68.6198 10.8422C68.8416 10.8224 69.0209 10.785 69.1577 10.7301C69.299 10.6721 69.4108 10.6127 69.4931 10.552L69.7913 8.8851L68.0436 8.5725L68.2365 7.49391L71.4261 8.06445Z" fill="#161A34"/>
<path d="M78.9622 12.9371L78.5981 14.0448L74.2953 12.6304L74.6594 11.5227L78.9622 12.9371ZM77.3546 4.65568L74.6905 12.7603L73.2933 12.301L75.9574 4.19642L77.3546 4.65568ZM79.5875 9.1397L79.2289 10.2307L75.4883 9.00112L75.8469 7.91011L79.5875 9.1397ZM81.2343 5.93101L80.8684 7.04428L76.5934 5.63904L76.9594 4.52577L81.2343 5.93101Z" fill="#161A34"/>
<path d="M87.712 8.16681L83.8986 15.7983L82.5935 15.1462L86.4069 7.51465L87.712 8.16681ZM90.1073 9.36374L89.5835 10.412L83.5087 7.37649L84.0325 6.3282L90.1073 9.36374Z" fill="#161A34"/>
<path d="M98.2351 14.0078L93.1164 20.8328L91.9398 19.9504L97.0586 13.1254L98.2351 14.0078Z" fill="#161A34"/>
<path d="M106.491 20.8175L100.264 26.6495L99.259 25.5762L101.104 18.6059L96.6434 22.7836L95.638 21.7102L101.864 15.8782L102.87 16.9516L101.025 23.9384L105.493 19.7527L106.491 20.8175Z" fill="#161A34"/>
<path d="M114.794 30.8637L107.386 35.0942L106.662 33.8273L114.071 29.5968L114.794 30.8637ZM116.122 33.1891L115.105 33.7702L111.737 27.8729L112.755 27.2918L116.122 33.1891Z" fill="#161A34"/>
<path d="M116.491 42.9229L116.049 43.0793C115.441 43.2943 114.868 43.408 114.33 43.4204C113.791 43.4328 113.301 43.3517 112.858 43.177C112.416 43.006 112.032 42.7481 111.707 42.4032C111.386 42.057 111.137 41.6353 110.961 41.1382C110.787 40.6448 110.715 40.1624 110.747 39.6911C110.785 39.2222 110.92 38.7786 111.153 38.3604C111.386 37.9422 111.715 37.5649 112.138 37.2285C112.563 36.8957 113.08 36.6218 113.687 36.4068L114.129 36.2504C114.737 36.0353 115.309 35.9241 115.845 35.9167C116.384 35.9079 116.876 35.9909 117.319 36.1656C117.767 36.3427 118.151 36.6025 118.471 36.945C118.796 37.2898 119.046 37.709 119.221 38.2024C119.397 38.6996 119.467 39.1844 119.431 39.657C119.399 40.1283 119.264 40.5719 119.026 40.9877C118.791 41.4022 118.461 41.774 118.034 42.1031C117.613 42.4345 117.098 42.7078 116.491 42.9229ZM115.558 41.6928L116.011 41.5325C116.46 41.3735 116.841 41.1892 117.152 40.9796C117.468 40.7724 117.712 40.5431 117.884 40.2916C118.061 40.0424 118.166 39.7755 118.197 39.4908C118.233 39.2047 118.197 38.9089 118.088 38.6032C117.98 38.2976 117.823 38.0466 117.617 37.8502C117.414 37.6526 117.165 37.5108 116.869 37.4248C116.579 37.3412 116.245 37.3165 115.867 37.3506C115.494 37.3835 115.082 37.4794 114.633 37.6384L114.18 37.7987C113.731 37.9577 113.349 38.1427 113.034 38.3536C112.719 38.5644 112.472 38.7969 112.292 39.0511C112.118 39.3075 112.012 39.577 111.976 39.8593C111.942 40.1404 111.98 40.4338 112.088 40.7394C112.198 41.0487 112.354 41.3022 112.556 41.4998C112.762 41.6962 113.013 41.8355 113.307 41.9178C113.605 41.9988 113.942 42.0204 114.318 41.9826C114.696 41.9484 115.109 41.8518 115.558 41.6928Z" fill="#161A34"/>
<path d="M122.994 49.9823L123.252 51.4243L117.64 52.4281C117.002 52.5423 116.443 52.4995 115.962 52.2997C115.482 52.0998 115.09 51.7811 114.785 51.3435C114.486 50.9091 114.283 50.3996 114.179 49.8152C114.071 49.2115 114.082 48.6539 114.213 48.1424C114.347 47.6302 114.606 47.1991 114.987 46.8491C115.37 46.5029 115.88 46.2727 116.519 46.1585L122.131 45.1547L122.389 46.5966L116.777 47.6005C116.373 47.6727 116.053 47.8014 115.816 47.9866C115.583 48.1711 115.428 48.4013 115.35 48.6771C115.273 48.9528 115.265 49.2638 115.327 49.6098C115.388 49.9559 115.503 50.2429 115.671 50.4708C115.839 50.7026 116.065 50.8647 116.347 50.957C116.634 51.0487 116.979 51.0584 117.382 50.9862L122.994 49.9823Z" fill="#161A34"/>
<path d="M118.707 59.8258L118.735 61.2904C118.176 61.2543 117.675 61.1077 117.233 60.8505C116.794 60.5933 116.445 60.227 116.186 59.7514C115.927 59.2758 115.79 58.6944 115.777 58.007C115.767 57.4798 115.851 57.0034 116.031 56.578C116.214 56.1525 116.476 55.7861 116.818 55.4786C117.164 55.1711 117.583 54.9325 118.076 54.7628C118.569 54.597 119.122 54.5082 119.735 54.4964L120.444 54.4827C121.057 54.4709 121.614 54.5402 122.113 54.6908C122.612 54.8452 123.04 55.0714 123.397 55.3692C123.759 55.667 124.037 56.0269 124.233 56.449C124.429 56.875 124.532 57.3555 124.542 57.8906C124.555 58.5701 124.441 59.1467 124.2 59.6201C123.959 60.0936 123.621 60.4635 123.184 60.7298C122.748 61 122.246 61.1699 121.676 61.2395L121.648 59.7749C122.015 59.7288 122.327 59.6368 122.586 59.4989C122.846 59.365 123.041 59.1698 123.173 58.9133C123.309 58.6567 123.372 58.3234 123.365 57.9133C123.358 57.5774 123.29 57.2857 123.16 57.0382C123.03 56.7906 122.843 56.5852 122.597 56.422C122.352 56.2587 122.051 56.1375 121.694 56.0585C121.341 55.9832 120.937 55.95 120.484 55.9587L119.764 55.9727C119.334 55.9809 118.944 56.0256 118.594 56.1066C118.248 56.1914 117.952 56.3143 117.705 56.4754C117.458 56.6403 117.269 56.8471 117.137 57.0958C117.005 57.3445 116.942 57.6407 116.949 57.9844C116.957 58.4023 117.03 58.7388 117.167 58.994C117.305 59.2531 117.502 59.4466 117.759 59.5745C118.019 59.7062 118.335 59.79 118.707 59.8258Z" fill="#161A34"/>
<path d="M120.783 69.808L119.632 69.6203L120.361 65.1501L121.512 65.3378L120.783 69.808ZM124.969 66.2698L116.549 64.8965L116.786 63.4449L125.206 64.8183L124.969 66.2698ZM124.117 71.4976L115.697 70.1243L115.933 68.6785L124.353 70.0519L124.117 71.4976Z" fill="#161A34"/>
<path d="M108.782 98.3122L106.286 96.2181C106.241 96.0224 106.229 95.7643 106.248 95.4437C106.267 95.1287 106.36 94.7657 106.527 94.3546C106.693 93.9436 106.979 93.4971 107.383 93.0154C107.727 92.6054 108.111 92.2877 108.535 92.062C108.962 91.8389 109.414 91.7162 109.892 91.6938C110.367 91.6744 110.854 91.7594 111.353 91.9486C111.855 92.1404 112.354 92.4447 112.851 92.8615L113.304 93.2419C113.798 93.6562 114.186 94.0867 114.469 94.5333C114.753 94.9854 114.931 95.4411 115.005 95.9005C115.078 96.3599 115.046 96.8119 114.907 97.2566C114.769 97.7067 114.524 98.1413 114.173 98.5602C113.723 99.0958 113.262 99.4633 112.789 99.6628C112.316 99.8677 111.842 99.9341 111.367 99.862C110.892 99.7899 110.431 99.6097 109.985 99.3216L110.911 98.2175C111.169 98.3724 111.431 98.4728 111.699 98.5187C111.964 98.5677 112.227 98.539 112.49 98.4329C112.753 98.3323 113.011 98.1308 113.265 97.8286C113.483 97.5683 113.626 97.298 113.693 97.0176C113.76 96.7372 113.753 96.4509 113.672 96.1585C113.588 95.8692 113.436 95.576 113.216 95.2792C112.996 94.9824 112.71 94.6858 112.357 94.3895L111.894 94.0016C111.535 93.7003 111.185 93.4702 110.844 93.3115C110.5 93.1558 110.173 93.0694 109.861 93.0524C109.546 93.0383 109.252 93.0945 108.977 93.2211C108.706 93.3502 108.459 93.5465 108.238 93.8098C108.022 94.0671 107.866 94.2957 107.77 94.4954C107.677 94.6976 107.62 94.8717 107.6 95.0177C107.579 95.1692 107.575 95.2957 107.587 95.3973L108.884 96.4858L110.025 95.1258L110.865 95.8301L108.782 98.3122Z" fill="#161A34"/>
<path d="M100.527 102.657L99.749 101.788L103.121 98.7649L103.9 99.6331L100.527 102.657ZM108.507 105.395L102.812 99.0426L103.907 98.0608L109.602 104.413L108.507 105.395ZM103.506 105.093L102.74 104.238L105.672 101.609L106.438 102.465L103.506 105.093ZM105.466 108.121L104.683 107.248L108.034 104.245L108.816 105.117L105.466 108.121Z" fill="#161A34"/>
<path d="M100.455 112.45L95.7176 105.355L96.931 104.545L101.668 111.64L100.455 112.45ZM98.2275 113.937L97.5768 112.962L103.225 109.192L103.876 110.166L98.2275 113.937Z" fill="#161A34"/>
<path d="M90.2696 118.605L86.8877 110.773L88.2379 110.19L91.6198 118.022L90.2696 118.605Z" fill="#161A34"/>
<path d="M79.9483 122.455L78.0313 114.142L79.4644 113.811L84.5659 118.906L83.1928 112.951L84.6259 112.621L86.5428 120.934L85.1097 121.264L79.9941 116.16L81.3699 122.127L79.9483 122.455Z" fill="#161A34"/>
<path d="M67.1001 124.557L67.166 116.026L68.6249 116.037L68.5591 124.568L67.1001 124.557ZM64.4225 124.536L64.4315 123.364L71.2223 123.417L71.2133 124.588L64.4225 124.536Z" fill="#161A34"/>
<path d="M55.7723 119.95L55.8584 119.489C55.9767 118.856 56.1654 118.303 56.4245 117.831C56.6835 117.358 56.9996 116.974 57.3728 116.679C57.7421 116.382 58.1575 116.179 58.6189 116.071C59.0795 115.966 59.569 115.962 60.0874 116.059C60.6019 116.155 61.0551 116.335 61.4469 116.599C61.8341 116.866 62.1503 117.205 62.3953 117.617C62.6404 118.028 62.8023 118.501 62.8812 119.037C62.9562 119.571 62.9345 120.155 62.8162 120.789L62.7301 121.25C62.6117 121.883 62.4215 122.434 62.1593 122.901C61.8964 123.373 61.5784 123.757 61.2052 124.052C60.8275 124.351 60.4102 124.554 59.9534 124.659C59.492 124.768 59.0041 124.774 58.4895 124.678C57.9711 124.581 57.5164 124.399 57.1253 124.131C56.7335 123.867 56.4174 123.528 56.1769 123.113C55.9357 122.703 55.7795 122.23 55.7084 121.697C55.6326 121.166 55.6539 120.584 55.7723 119.95ZM57.3041 119.759L57.2158 120.232C57.1283 120.7 57.0973 121.121 57.1228 121.496C57.1437 121.873 57.2198 122.199 57.3513 122.474C57.4782 122.752 57.6569 122.976 57.8874 123.147C58.1171 123.321 58.3914 123.437 58.7101 123.497C59.0288 123.557 59.3248 123.546 59.598 123.466C59.8705 123.39 60.1181 123.245 60.3406 123.033C60.5586 122.823 60.7474 122.546 60.9069 122.203C61.0658 121.863 61.189 121.459 61.2765 120.99L61.3647 120.518C61.4522 120.049 61.4836 119.626 61.4588 119.248C61.4341 118.87 61.3567 118.539 61.2267 118.257C61.0921 117.977 60.9119 117.751 60.686 117.578C60.4593 117.408 60.1866 117.294 59.8679 117.234C59.5454 117.174 59.2478 117.182 58.9753 117.258C58.702 117.338 58.4561 117.485 58.2374 117.698C58.018 117.916 57.8304 118.197 57.6747 118.541C57.5151 118.885 57.3916 119.291 57.3041 119.759Z" fill="#161A34"/>
<path d="M46.5032 122.059L45.126 121.56L47.0686 116.2C47.2895 115.59 47.6068 115.127 48.0202 114.812C48.4337 114.496 48.9061 114.317 49.4374 114.272C49.9636 114.23 50.5059 114.311 51.0641 114.513C51.6407 114.722 52.1175 115.011 52.4947 115.38C52.8706 115.753 53.1143 116.193 53.226 116.699C53.334 117.203 53.2775 117.76 53.0566 118.37L51.114 123.73L49.7368 123.231L51.6794 117.871C51.8192 117.485 51.8682 117.143 51.8265 116.846C51.7834 116.552 51.662 116.302 51.4622 116.097C51.2625 115.891 50.9973 115.729 50.6668 115.609C50.3362 115.489 50.0303 115.445 49.749 115.476C49.464 115.506 49.2109 115.619 48.9895 115.818C48.7668 116.019 48.5855 116.313 48.4458 116.699L46.5032 122.059Z" fill="#161A34"/>
<path d="M40.0332 113.362L38.7532 112.649C39.0658 112.184 39.4445 111.825 39.8893 111.572C40.3323 111.322 40.8245 111.205 41.3659 111.22C41.9073 111.235 42.4784 111.41 43.0791 111.744C43.5399 112 43.9091 112.313 44.1865 112.682C44.4621 113.055 44.6468 113.466 44.7406 113.916C44.8324 114.369 44.8278 114.852 44.7265 115.363C44.6218 115.873 44.4203 116.395 44.1221 116.931L43.7774 117.551C43.4792 118.087 43.1395 118.532 42.7583 118.888C42.3738 119.242 41.9629 119.498 41.5257 119.657C41.0866 119.82 40.6354 119.879 40.1722 119.836C39.7056 119.791 39.2384 119.638 38.7708 119.378C38.1769 119.048 37.7359 118.659 37.4478 118.213C37.1598 117.766 37.0105 117.288 36.9998 116.777C36.9857 116.264 37.0918 115.744 37.3179 115.217L38.5979 115.929C38.4535 116.269 38.3757 116.586 38.3645 116.879C38.3498 117.17 38.4202 117.437 38.5756 117.68C38.7291 117.927 38.9851 118.149 39.3435 118.349C39.637 118.512 39.9234 118.6 40.2026 118.612C40.4819 118.625 40.7538 118.566 41.0183 118.436C41.2828 118.306 41.5391 118.107 41.787 117.838C42.0296 117.571 42.2611 117.239 42.4814 116.843L42.8319 116.213C43.0408 115.838 43.1983 115.478 43.3044 115.135C43.4052 114.793 43.4481 114.475 43.4331 114.181C43.4147 113.884 43.3313 113.617 43.1827 113.377C43.0341 113.138 42.8097 112.935 42.5093 112.768C42.1441 112.565 41.8165 112.459 41.5267 112.449C41.2334 112.438 40.967 112.511 40.7275 112.668C40.4826 112.827 40.2512 113.058 40.0332 113.362Z" fill="#161A34"/>
<path d="M30.5681 110.262L31.3078 109.361L34.809 112.234L34.0693 113.136L30.5681 110.262ZM31.5284 115.659L36.9406 109.064L38.0775 109.997L32.6652 116.592L31.5284 115.659ZM27.4339 112.299L32.8461 105.704L33.9784 106.633L28.5662 113.228L27.4339 112.299Z" fill="#161A34"/>
<path d="M11.9361 85.7652L14.9947 84.6436C15.1868 84.7022 15.417 84.8196 15.6855 84.9957C15.949 85.1695 16.2175 85.431 16.4911 85.78C16.7647 86.129 17.0097 86.5988 17.2262 87.1892C17.4105 87.6917 17.4949 88.1829 17.4795 88.6628C17.4604 89.1441 17.3417 89.5975 17.1232 90.0229C16.9034 90.4447 16.5872 90.8248 16.1746 91.1633C15.7584 91.5032 15.2459 91.7847 14.6371 92.008L14.0814 92.2117C13.4763 92.4336 12.9096 92.5561 12.3814 92.5792C11.8481 92.6 11.364 92.5279 10.9291 92.3628C10.4941 92.1978 10.1183 91.9445 9.80166 91.6029C9.48002 91.2591 9.22506 90.8304 9.03679 90.317C8.79607 89.6605 8.70707 89.0773 8.76977 88.5676C8.82747 88.0555 9.00582 87.6115 9.30484 87.2355C9.60386 86.8596 9.98949 86.5497 10.4617 86.3058L10.958 87.6591C10.6954 87.8053 10.4776 87.9829 10.3046 88.192C10.1303 88.3974 10.0238 88.6403 9.98518 88.9207C9.94154 89.1988 9.98764 89.5231 10.1235 89.8935C10.2405 90.2126 10.4038 90.471 10.6136 90.6686C10.8234 90.8663 11.0752 91.0028 11.3691 91.0781C11.6617 91.1497 11.9914 91.164 12.3584 91.121C12.7254 91.078 13.1253 90.9771 13.5581 90.8184L14.1247 90.6107C14.5648 90.4493 14.9386 90.2602 15.246 90.0435C15.5521 89.823 15.7903 89.5818 15.9604 89.3197C16.1293 89.0539 16.2271 88.7705 16.254 88.4694C16.2772 88.1696 16.2297 87.8584 16.1113 87.5356C15.9957 87.2202 15.8752 86.9711 15.7499 86.7882C15.6209 86.6067 15.4982 86.4707 15.3819 86.3802C15.2605 86.2874 15.1528 86.2208 15.0589 86.1803L13.4691 86.7633L14.0803 88.4301L13.0516 88.8074L11.9361 85.7652Z" fill="#161A34"/>
<path d="M12.2867 76.4905L13.4277 76.2502L14.3611 80.6823L13.2201 80.9226L12.2867 76.4905ZM5.92725 82.0334L14.2754 80.2752L14.5785 81.7144L6.23033 83.4725L5.92725 82.0334ZM8.68757 77.8533L9.81136 77.6166L10.6228 81.4696L9.49901 81.7063L8.68757 77.8533ZM5.08562 78.037L6.23234 77.7955L7.1597 82.1989L6.01298 82.4405L5.08562 78.037Z" fill="#161A34"/>
<path d="M3.80889 71.4022L12.3239 70.8759L12.4139 72.3321L3.8989 72.8584L3.80889 71.4022ZM3.64369 68.7295L4.81334 68.6572L5.23229 75.4353L4.06265 75.5076L3.64369 68.7295Z" fill="#161A34"/>
<path d="M3.5776 59.513L12.0519 60.4973L11.8822 61.9582L3.40792 60.9739L3.5776 59.513Z" fill="#161A34"/>
<path d="M5.37022 48.6979L13.5331 51.1777L13.1056 52.5849L6.14597 54.4695L11.9934 56.2459L11.5659 57.6531L3.40304 55.1733L3.83054 53.7661L10.8048 51.8737L4.94612 50.0939L5.37022 48.6979Z" fill="#161A34"/>
<path d="M9.87778 36.6169L17.239 40.929L16.5016 42.1879L9.14034 37.8758L9.87778 36.6169ZM11.2312 34.3064L12.2424 34.8987L8.80989 40.7584L7.79873 40.1661L11.2312 34.3064Z" fill="#161A34"/>
<path d="M19.565 29.02L19.9207 29.3252C20.4099 29.7449 20.794 30.185 21.073 30.6457C21.352 31.1064 21.5262 31.5723 21.5954 32.0435C21.6673 32.5117 21.6346 32.9727 21.4976 33.4264C21.3576 33.8776 21.1159 34.3033 20.7725 34.7035C20.4317 35.1008 20.049 35.4029 19.6243 35.6099C19.1993 35.8114 18.7474 35.9152 18.2686 35.9214C17.7898 35.9275 17.299 35.8307 16.7962 35.6309C16.2959 35.4282 15.8012 35.1169 15.312 34.6973L14.9562 34.3921C14.467 33.9724 14.0857 33.532 13.8122 33.0709C13.5357 32.6073 13.3628 32.1399 13.2936 31.6687C13.2239 31.192 13.2578 30.7295 13.3952 30.2813C13.5323 29.8276 13.7712 29.4021 14.112 29.0049C14.4554 28.6046 14.8409 28.3023 15.2685 28.0978C15.6931 27.8908 16.145 27.787 16.6242 27.7864C17.1005 27.7832 17.5875 27.8845 18.0852 28.0902C18.5825 28.2904 19.0758 28.6003 19.565 29.02ZM18.9631 30.4414L18.5985 30.1286C18.2368 29.8183 17.8875 29.5804 17.5508 29.415C17.2136 29.2441 16.8931 29.1468 16.5893 29.1229C16.2851 29.0935 16.0017 29.136 15.7389 29.2503C15.4732 29.362 15.2348 29.5409 15.0237 29.787C14.8126 30.033 14.6733 30.2944 14.6058 30.571C14.5354 30.8451 14.5365 31.1318 14.6092 31.4309C14.6816 31.7246 14.8265 32.0265 15.0442 32.3368C15.2589 32.6445 15.547 32.9535 15.9087 33.2638L16.2734 33.5766C16.6351 33.8869 16.9858 34.126 17.3255 34.294C17.6653 34.4619 17.99 34.5603 18.2997 34.5893C18.609 34.6127 18.8952 34.5701 19.1584 34.4613C19.4186 34.35 19.6542 34.1713 19.8653 33.9252C20.079 33.6762 20.221 33.4146 20.2915 33.1405C20.359 32.8639 20.3551 32.5774 20.2798 32.2812C20.2015 31.9825 20.0523 31.6795 19.8321 31.3722C19.6145 31.062 19.3248 30.7517 18.9631 30.4414Z" fill="#161A34"/>
<path d="M22.3678 19.9303L23.4865 18.9846L27.1671 23.3386C27.5857 23.8338 27.8289 24.3392 27.8965 24.8549C27.9642 25.3706 27.8849 25.8698 27.6588 26.3525C27.4331 26.8298 27.0935 27.26 26.6401 27.6434C26.1717 28.0393 25.6835 28.3088 25.1753 28.4519C24.6646 28.5921 24.1622 28.5846 23.6679 28.4296C23.1767 28.272 22.7217 27.9456 22.3031 27.4504L18.6225 23.0965L19.7412 22.1508L23.4218 26.5047C23.6866 26.8179 23.9584 27.0306 24.2373 27.1427C24.5136 27.2517 24.7906 27.2708 25.0682 27.1998C25.3458 27.1288 25.6188 26.9799 25.8873 26.7529C26.1558 26.5259 26.3466 26.2828 26.4598 26.0234C26.576 25.7615 26.6033 25.4852 26.5418 25.1945C26.4777 24.9009 26.3132 24.5975 26.0484 24.2842L22.3678 19.9303Z" fill="#161A34"/>
<path d="M33.1818 18.602L34.4375 17.8477C34.685 18.3507 34.8075 18.858 34.8051 19.3699C34.8007 19.8783 34.6569 20.3634 34.3738 20.8251C34.0906 21.2869 33.6544 21.6947 33.0651 22.0488C32.613 22.3203 32.1579 22.4844 31.6997 22.5409C31.2395 22.594 30.791 22.549 30.3541 22.4059C29.9152 22.2594 29.4994 22.0148 29.1067 21.672C28.7173 21.3272 28.3647 20.8919 28.0489 20.3662L27.6838 19.7585C27.368 19.2327 27.151 18.716 27.0328 18.2083C26.918 17.6985 26.9006 17.2145 26.9808 16.7563C27.0589 16.2947 27.2322 15.8739 27.5007 15.4939C27.7724 15.1119 28.1377 14.7831 28.5965 14.5075C29.1791 14.1575 29.7357 13.969 30.2663 13.9419C30.7968 13.9148 31.2863 14.0241 31.7346 14.2697C32.1862 14.5133 32.584 14.8645 32.9279 15.3232L31.6722 16.0775C31.4496 15.7829 31.214 15.5576 30.9654 15.4016C30.7201 15.2436 30.4535 15.1714 30.1654 15.185C29.8754 15.1952 29.5545 15.3059 29.2029 15.5171C28.915 15.6901 28.696 15.8945 28.5461 16.1304C28.3961 16.3663 28.3115 16.6313 28.2922 16.9254C28.273 17.2195 28.318 17.541 28.4274 17.89C28.5381 18.2336 28.7101 18.5996 28.9435 18.9881L29.3146 19.6059C29.5359 19.9742 29.7688 20.29 30.0135 20.5531C30.2595 20.8109 30.5138 21.0067 30.7765 21.1406C31.0425 21.2724 31.3162 21.3335 31.5976 21.324C31.8789 21.3145 32.1669 21.2212 32.4616 21.0442C32.8199 20.829 33.0754 20.5981 33.228 20.3514C33.3839 20.1028 33.4535 19.8355 33.4366 19.5494C33.421 19.258 33.3361 18.9422 33.1818 18.602Z" fill="#161A34"/>
<path d="M40.4694 11.9803L40.8831 13.0705L36.6485 14.6775L36.2348 13.5874L40.4694 11.9803ZM35.3104 10.1278L38.3374 18.1039L36.9624 18.6258L33.9354 10.6496L35.3104 10.1278ZM40.2626 8.24835L43.2897 16.2245L41.9201 16.7443L38.8931 8.7681L40.2626 8.24835Z" fill="#161A34"/>
<circle cx="54.5" cy="8.5" r="1.5" fill="#161A34"/>
<circle cx="116.5" cy="82.5" r="1.5" fill="#161A34"/>
<circle cx="21.5" cy="100.5" r="1.5" fill="#161A34"/>
</svg>
