<svg width="128" height="128" viewBox="0 0 128 128" fill="none" xmlns="http://www.w3.org/2000/svg">
<path d="M71.4268 8.06445L70.8531 11.2714C70.7057 11.4077 70.4883 11.5474 70.2008 11.6904C69.9178 11.8303 69.5567 11.9303 69.1173 11.9906C68.678 12.0509 68.1488 12.0257 67.5297 11.915C67.0029 11.8208 66.5361 11.646 66.1294 11.3907C65.7234 11.1316 65.3917 10.8004 65.1345 10.3973C64.8811 9.99479 64.7122 9.53007 64.6279 9.00308C64.5443 8.47225 64.5596 7.88769 64.6737 7.24938L64.7779 6.66683C64.8914 6.03237 65.0714 5.48122 65.3178 5.01339C65.5687 4.54239 65.875 4.16069 66.2369 3.86827C66.5987 3.57585 67.0069 3.37902 67.4615 3.2778C67.9207 3.17342 68.4194 3.16938 68.9577 3.26567C69.646 3.38879 70.1945 3.60594 70.6031 3.91713C71.0163 4.22515 71.3098 4.60305 71.4837 5.05082C71.6575 5.49859 71.7307 5.98787 71.7033 6.51867L70.2844 6.26487C70.2905 5.96438 70.2469 5.68674 70.1536 5.43195C70.0641 5.17785 69.908 4.96343 69.6853 4.78867C69.4671 4.61076 69.1639 4.48706 68.7755 4.4176C68.441 4.35776 68.1355 4.36859 67.859 4.45008C67.5825 4.53158 67.3377 4.68025 67.1244 4.89608C66.9151 5.1126 66.7365 5.39017 66.5886 5.7288C66.4407 6.06743 66.3262 6.46361 66.245 6.91734L66.1388 7.51143C66.0562 7.97286 66.0311 8.39097 66.0632 8.76577C66.0992 9.14126 66.1875 9.46856 66.3281 9.74767C66.4725 10.0275 66.6679 10.2549 66.9144 10.4299C67.1615 10.6011 67.4543 10.717 67.7927 10.7775C68.1234 10.8366 68.3993 10.8582 68.6204 10.8422C68.8422 10.8224 69.0215 10.785 69.1583 10.7301C69.2996 10.6721 69.4114 10.6127 69.4937 10.552L69.7919 8.8851L68.0442 8.5725L68.2371 7.49391L71.4268 8.06445Z" fill="white"/>
<path d="M78.9629 12.9371L78.5988 14.0448L74.296 12.6304L74.6601 11.5227L78.9629 12.9371ZM77.3553 4.65568L74.6912 12.7603L73.2941 12.301L75.9582 4.19642L77.3553 4.65568ZM79.5882 9.1397L79.2296 10.2307L75.489 9.00112L75.8476 7.91011L79.5882 9.1397ZM81.2351 5.93101L80.8691 7.04428L76.5942 5.63904L76.9601 4.52577L81.2351 5.93101Z" fill="white"/>
<path d="M87.7122 8.16681L83.8988 15.7983L82.5937 15.1462L86.4071 7.51465L87.7122 8.16681ZM90.1076 9.36374L89.5837 10.412L83.5089 7.37649L84.0327 6.3282L90.1076 9.36374Z" fill="white"/>
<path d="M98.2354 14.0078L93.1167 20.8328L91.9401 19.9504L97.0588 13.1254L98.2354 14.0078Z" fill="white"/>
<path d="M106.492 20.8175L100.265 26.6495L99.2597 25.5762L101.104 18.6059L96.6441 22.7836L95.6387 21.7102L101.865 15.8782L102.871 16.9516L101.025 23.9384L105.494 19.7527L106.492 20.8175Z" fill="white"/>
<path d="M114.794 30.8637L107.386 35.0942L106.662 33.8273L114.071 29.5968L114.794 30.8637ZM116.122 33.1891L115.104 33.7702L111.737 27.8729L112.754 27.2918L116.122 33.1891Z" fill="white"/>
<path d="M116.491 42.9229L116.049 43.0793C115.442 43.2943 114.869 43.408 114.33 43.4204C113.792 43.4328 113.301 43.3517 112.858 43.177C112.416 43.006 112.033 42.7481 111.708 42.4032C111.386 42.057 111.138 41.6353 110.962 41.1382C110.787 40.6448 110.716 40.1624 110.748 39.6911C110.785 39.2222 110.92 38.7786 111.153 38.3604C111.386 37.9422 111.715 37.5649 112.139 37.2285C112.564 36.8957 113.08 36.6218 113.688 36.4068L114.13 36.2504C114.737 36.0353 115.309 35.9241 115.845 35.9167C116.385 35.9079 116.876 35.9909 117.319 36.1656C117.767 36.3427 118.151 36.6025 118.471 36.945C118.797 37.2898 119.046 37.709 119.221 38.2024C119.397 38.6996 119.467 39.1844 119.431 39.657C119.399 40.1283 119.264 40.5719 119.026 40.9877C118.791 41.4022 118.461 41.774 118.035 42.1031C117.613 42.4345 117.099 42.7078 116.491 42.9229ZM115.559 41.6928L116.012 41.5325C116.461 41.3735 116.841 41.1892 117.152 40.9796C117.468 40.7724 117.712 40.5431 117.884 40.2916C118.062 40.0424 118.166 39.7755 118.198 39.4908C118.233 39.2047 118.197 38.9089 118.089 38.6032C117.981 38.2976 117.823 38.0466 117.617 37.8502C117.415 37.6526 117.165 37.5108 116.87 37.4248C116.579 37.3412 116.245 37.3165 115.868 37.3506C115.494 37.3835 115.082 37.4794 114.633 37.6384L114.18 37.7987C113.731 37.9577 113.349 38.1427 113.034 38.3536C112.719 38.5644 112.472 38.7969 112.293 39.0511C112.118 39.3075 112.013 39.577 111.976 39.8593C111.943 40.1404 111.98 40.4338 112.088 40.7394C112.198 41.0487 112.354 41.3022 112.557 41.4998C112.763 41.6962 113.013 41.8355 113.307 41.9178C113.605 41.9988 113.942 42.0204 114.319 41.9826C114.696 41.9484 115.109 41.8518 115.559 41.6928Z" fill="white"/>
<path d="M122.995 49.9823L123.253 51.4243L117.641 52.4281C117.003 52.5423 116.443 52.4995 115.963 52.2997C115.483 52.0998 115.091 51.7811 114.786 51.3435C114.486 50.9091 114.284 50.3996 114.179 49.8152C114.072 49.2115 114.083 48.6539 114.214 48.1424C114.348 47.6302 114.606 47.1991 114.988 46.8491C115.371 46.5029 115.881 46.2727 116.519 46.1585L122.132 45.1547L122.389 46.5966L116.777 47.6005C116.374 47.6727 116.053 47.8014 115.817 47.9866C115.584 48.1711 115.429 48.4013 115.351 48.6771C115.273 48.9528 115.265 49.2638 115.327 49.6098C115.389 49.9559 115.504 50.2429 115.672 50.4708C115.84 50.7026 116.066 50.8647 116.348 50.957C116.634 51.0487 116.979 51.0584 117.383 50.9862L122.995 49.9823Z" fill="white"/>
<path d="M118.707 59.8258L118.736 61.2904C118.176 61.2543 117.675 61.1077 117.233 60.8505C116.794 60.5933 116.445 60.227 116.186 59.7514C115.927 59.2758 115.79 58.6944 115.777 58.007C115.767 57.4798 115.852 57.0034 116.031 56.578C116.214 56.1525 116.477 55.7861 116.818 55.4786C117.164 55.1711 117.583 54.9325 118.076 54.7628C118.569 54.597 119.122 54.5082 119.736 54.4964L120.444 54.4827C121.058 54.4709 121.614 54.5402 122.113 54.6908C122.612 54.8452 123.04 55.0714 123.398 55.3692C123.759 55.667 124.037 56.0269 124.233 56.449C124.429 56.875 124.532 57.3555 124.542 57.8906C124.555 58.5701 124.441 59.1467 124.2 59.6201C123.96 60.0936 123.621 60.4635 123.185 60.7298C122.748 61 122.246 61.1699 121.677 61.2395L121.648 59.7749C122.015 59.7288 122.327 59.6368 122.586 59.4989C122.846 59.365 123.041 59.1698 123.173 58.9133C123.309 58.6567 123.373 58.3234 123.365 57.9133C123.358 57.5774 123.29 57.2857 123.16 57.0382C123.03 56.7906 122.843 56.5852 122.597 56.422C122.352 56.2587 122.051 56.1375 121.694 56.0585C121.341 55.9832 120.938 55.95 120.485 55.9587L119.764 55.9727C119.334 55.9809 118.945 56.0256 118.594 56.1066C118.248 56.1914 117.952 56.3143 117.705 56.4754C117.458 56.6403 117.269 56.8471 117.137 57.0958C117.005 57.3445 116.942 57.6407 116.949 57.9844C116.957 58.4023 117.03 58.7388 117.168 58.994C117.305 59.2531 117.503 59.4466 117.759 59.5745C118.019 59.7062 118.335 59.79 118.707 59.8258Z" fill="white"/>
<path d="M120.783 69.808L119.632 69.6203L120.361 65.1501L121.512 65.3378L120.783 69.808ZM124.969 66.2698L116.549 64.8965L116.786 63.4449L125.206 64.8183L124.969 66.2698ZM124.117 71.4976L115.697 70.1243L115.932 68.6785L124.352 70.0519L124.117 71.4976Z" fill="white"/>
<path d="M108.782 98.3122L106.287 96.2181C106.242 96.0224 106.229 95.7643 106.248 95.4437C106.268 95.1287 106.361 94.7657 106.527 94.3546C106.694 93.9436 106.979 93.4971 107.383 93.0154C107.727 92.6054 108.111 92.2877 108.535 92.062C108.962 91.8389 109.414 91.7162 109.892 91.6938C110.367 91.6744 110.854 91.7594 111.353 91.9486C111.855 92.1404 112.355 92.4447 112.852 92.8615L113.305 93.2419C113.799 93.6562 114.187 94.0867 114.47 94.5333C114.754 94.9854 114.932 95.4411 115.006 95.9005C115.079 96.3599 115.046 96.8119 114.908 97.2566C114.77 97.7067 114.525 98.1413 114.173 98.5602C113.724 99.0958 113.263 99.4633 112.789 99.6628C112.316 99.8677 111.843 99.9341 111.368 99.862C110.893 99.7899 110.432 99.6097 109.985 99.3216L110.912 98.2175C111.169 98.3724 111.432 98.4728 111.699 98.5187C111.964 98.5677 112.228 98.539 112.49 98.4329C112.753 98.3323 113.012 98.1308 113.265 97.8286C113.484 97.5683 113.626 97.298 113.693 97.0176C113.76 96.7372 113.753 96.4509 113.672 96.1585C113.589 95.8692 113.437 95.576 113.217 95.2792C112.997 94.9824 112.71 94.6858 112.357 94.3895L111.895 94.0016C111.536 93.7003 111.186 93.4702 110.845 93.3115C110.501 93.1558 110.173 93.0694 109.861 93.0524C109.547 93.0383 109.252 93.0945 108.978 93.2211C108.706 93.3502 108.46 93.5465 108.239 93.8098C108.023 94.0671 107.867 94.2957 107.771 94.4954C107.677 94.6976 107.621 94.8717 107.6 95.0177C107.58 95.1692 107.576 95.2957 107.588 95.3973L108.885 96.4858L110.026 95.1258L110.865 95.8301L108.782 98.3122Z" fill="white"/>
<path d="M100.528 102.657L99.7492 101.788L103.122 98.7649L103.9 99.6331L100.528 102.657ZM108.507 105.395L102.812 99.0426L103.907 98.0608L109.602 104.413L108.507 105.395ZM103.507 105.093L102.74 104.238L105.672 101.609L106.438 102.465L103.507 105.093ZM105.466 108.121L104.684 107.248L108.034 104.245L108.817 105.117L105.466 108.121Z" fill="white"/>
<path d="M100.455 112.45L95.7179 105.355L96.9313 104.545L101.668 111.64L100.455 112.45ZM98.2278 113.937L97.5771 112.962L103.225 109.192L103.876 110.166L98.2278 113.937Z" fill="white"/>
<path d="M90.2699 118.605L86.8879 110.773L88.2382 110.19L91.6201 118.022L90.2699 118.605Z" fill="white"/>
<path d="M79.9481 122.455L78.0312 114.142L79.4643 113.811L84.5658 118.906L83.1926 112.951L84.6257 112.621L86.5427 120.934L85.1096 121.264L79.994 116.16L81.3698 122.127L79.9481 122.455Z" fill="white"/>
<path d="M67.1002 124.557L67.1661 116.026L68.625 116.037L68.5592 124.568L67.1002 124.557ZM64.4226 124.536L64.4316 123.364L71.2225 123.417L71.2134 124.588L64.4226 124.536Z" fill="white"/>
<path d="M55.772 119.95L55.8581 119.489C55.9764 118.856 56.1651 118.303 56.4242 117.831C56.6833 117.358 56.9994 116.974 57.3726 116.679C57.7419 116.382 58.1572 116.179 58.6186 116.071C59.0793 115.966 59.5688 115.962 60.0872 116.059C60.6017 116.155 61.0549 116.335 61.4467 116.599C61.8339 116.866 62.15 117.205 62.3951 117.617C62.6401 118.028 62.8021 118.501 62.8809 119.037C62.9559 119.571 62.9342 120.155 62.8159 120.789L62.7298 121.25C62.6115 121.883 62.4212 122.434 62.1591 122.901C61.8961 123.373 61.5781 123.757 61.2049 124.052C60.8272 124.351 60.4099 124.554 59.9531 124.659C59.4918 124.768 59.0038 124.774 58.4893 124.678C57.9709 124.581 57.5162 124.399 57.1251 124.131C56.7333 123.867 56.4171 123.528 56.1767 123.113C55.9355 122.703 55.7793 122.23 55.7081 121.697C55.6324 121.166 55.6537 120.584 55.772 119.95ZM57.3038 119.759L57.2156 120.232C57.1281 120.7 57.0971 121.121 57.1225 121.496C57.1434 121.873 57.2196 122.199 57.3511 122.474C57.4779 122.752 57.6566 122.976 57.8871 123.147C58.1169 123.321 58.3911 123.437 58.7098 123.497C59.0285 123.557 59.3245 123.546 59.5978 123.466C59.8703 123.39 60.1178 123.245 60.3404 123.033C60.5584 122.823 60.7471 122.546 60.9067 122.203C61.0656 121.863 61.1887 121.459 61.2762 120.99L61.3644 120.518C61.4519 120.049 61.4833 119.626 61.4586 119.248C61.4338 118.87 61.3565 118.539 61.2265 118.257C61.0919 117.977 60.9116 117.751 60.6857 117.578C60.4591 117.408 60.1864 117.294 59.8677 117.234C59.5451 117.174 59.2476 117.182 58.9751 117.258C58.7018 117.338 58.4558 117.485 58.2371 117.698C58.0177 117.916 57.8301 118.197 57.6744 118.541C57.5148 118.885 57.3913 119.291 57.3038 119.759Z" fill="white"/>
<path d="M46.5038 122.059L45.1266 121.56L47.0692 116.2C47.2901 115.59 47.6074 115.127 48.0209 114.812C48.4343 114.496 48.9067 114.317 49.438 114.272C49.9642 114.23 50.5065 114.311 51.0647 114.513C51.6413 114.722 52.1181 115.011 52.4953 115.38C52.8712 115.753 53.1149 116.193 53.2266 116.699C53.3346 117.203 53.2781 117.76 53.0572 118.37L51.1146 123.73L49.7374 123.231L51.68 117.871C51.8198 117.485 51.8688 117.143 51.8271 116.846C51.7841 116.552 51.6626 116.302 51.4629 116.097C51.2631 115.891 50.9979 115.729 50.6674 115.609C50.3369 115.489 50.0309 115.445 49.7496 115.476C49.4647 115.506 49.2115 115.619 48.9901 115.818C48.7674 116.019 48.5861 116.313 48.4464 116.699L46.5038 122.059Z" fill="white"/>
<path d="M40.0335 113.362L38.7535 112.649C39.066 112.184 39.4448 111.825 39.8896 111.572C40.3325 111.322 40.8247 111.205 41.3661 111.22C41.9075 111.235 42.4786 111.41 43.0794 111.744C43.5402 112 43.9093 112.313 44.1868 112.682C44.4623 113.055 44.647 113.466 44.7408 113.916C44.8327 114.369 44.828 114.852 44.7267 115.363C44.622 115.873 44.4206 116.395 44.1224 116.931L43.7776 117.551C43.4794 118.087 43.1398 118.532 42.7586 118.888C42.374 119.242 41.9631 119.498 41.5259 119.657C41.0868 119.82 40.6357 119.879 40.1725 119.836C39.7058 119.791 39.2387 119.638 38.771 119.378C38.1771 119.048 37.7361 118.659 37.4481 118.213C37.16 117.766 37.0107 117.288 37 116.777C36.986 116.264 37.092 115.744 37.3181 115.217L38.5981 115.929C38.4537 116.269 38.3759 116.586 38.3647 116.879C38.3501 117.17 38.4205 117.437 38.5759 117.68C38.7294 117.927 38.9853 118.149 39.3437 118.349C39.6373 118.512 39.9237 118.6 40.2029 118.612C40.4821 118.625 40.754 118.566 41.0185 118.436C41.2831 118.306 41.5393 118.107 41.7873 117.838C42.0299 117.571 42.2614 117.239 42.4817 116.843L42.8321 116.213C43.0411 115.838 43.1986 115.478 43.3047 115.135C43.4054 114.793 43.4483 114.475 43.4334 114.181C43.415 113.884 43.3315 113.617 43.1829 113.377C43.0344 113.138 42.8099 112.935 42.5095 112.768C42.1443 112.565 41.8168 112.459 41.5269 112.449C41.2336 112.438 40.9672 112.511 40.7277 112.668C40.4829 112.827 40.2515 113.058 40.0335 113.362Z" fill="white"/>
<path d="M30.5682 110.262L31.3079 109.361L34.8091 112.234L34.0694 113.136L30.5682 110.262ZM31.5285 115.659L36.9407 109.064L38.0776 109.997L32.6654 116.592L31.5285 115.659ZM27.434 112.299L32.8462 105.704L33.9786 106.633L28.5663 113.228L27.434 112.299Z" fill="white"/>
<path d="M11.9358 85.7652L14.9945 84.6436C15.1865 84.7022 15.4168 84.8196 15.6853 84.9957C15.9487 85.1695 16.2172 85.431 16.4908 85.78C16.7644 86.129 17.0095 86.5988 17.226 87.1892C17.4102 87.6917 17.4947 88.1829 17.4793 88.6628C17.4602 89.1441 17.3414 89.5975 17.123 90.0229C16.9032 90.4447 16.587 90.8248 16.1744 91.1633C15.7581 91.5032 15.2456 91.7847 14.6368 92.008L14.0812 92.2117C13.4761 92.4336 12.9094 92.5561 12.3811 92.5792C11.8479 92.6 11.3638 92.5279 10.9288 92.3628C10.4938 92.1978 10.118 91.9445 9.80142 91.6029C9.47977 91.2591 9.22482 90.8304 9.03655 90.317C8.79583 89.6605 8.70682 89.0773 8.76953 88.5676C8.82722 88.0555 9.00558 87.6115 9.3046 87.2355C9.60362 86.8596 9.98925 86.5497 10.4615 86.3058L10.9577 87.6591C10.6951 87.8053 10.4773 87.9829 10.3044 88.192C10.13 88.3974 10.0236 88.6403 9.98494 88.9207C9.9413 89.1988 9.98739 89.5231 10.1232 89.8935C10.2402 90.2126 10.4036 90.471 10.6134 90.6686C10.8232 90.8663 11.075 91.0028 11.3689 91.0781C11.6614 91.1497 11.9912 91.164 12.3582 91.121C12.7252 91.078 13.1251 90.9771 13.5578 90.8184L14.1245 90.6107C14.5645 90.4493 14.9383 90.2602 15.2458 90.0435C15.5519 89.823 15.79 89.5818 15.9602 89.3197C16.129 89.0539 16.2269 88.7705 16.2538 88.4694C16.277 88.1696 16.2294 87.8584 16.1111 87.5356C15.9954 87.2202 15.875 86.9711 15.7496 86.7882C15.6207 86.6067 15.498 86.4707 15.3816 86.3802C15.2602 86.2874 15.1526 86.2208 15.0587 86.1803L13.4688 86.7633L14.08 88.4301L13.0513 88.8074L11.9358 85.7652Z" fill="white"/>
<path d="M12.2866 76.4905L13.4276 76.2502L14.361 80.6823L13.22 80.9226L12.2866 76.4905ZM5.92713 82.0334L14.2753 80.2752L14.5783 81.7144L6.23021 83.4725L5.92713 82.0334ZM8.68745 77.8533L9.81123 77.6166L10.6227 81.4696L9.49889 81.7063L8.68745 77.8533ZM5.0855 78.037L6.23222 77.7955L7.15958 82.1989L6.01286 82.4405L5.0855 78.037Z" fill="white"/>
<path d="M3.80926 71.4022L12.3243 70.8759L12.4143 72.3321L3.89926 72.8584L3.80926 71.4022ZM3.64406 68.7295L4.8137 68.6572L5.23266 75.4353L4.06302 75.5076L3.64406 68.7295Z" fill="white"/>
<path d="M3.57821 59.513L12.0525 60.4973L11.8828 61.9582L3.40853 60.9739L3.57821 59.513Z" fill="white"/>
<path d="M5.37046 48.6979L13.5333 51.1777L13.1058 52.5849L6.14622 54.4695L11.9937 56.2459L11.5662 57.6531L3.40329 55.1733L3.83078 53.7661L10.805 51.8737L4.94637 50.0939L5.37046 48.6979Z" fill="white"/>
<path d="M9.87766 36.6169L17.2389 40.929L16.5015 42.1879L9.14022 37.8758L9.87766 36.6169ZM11.2311 34.3064L12.2423 34.8987L8.80976 40.7584L7.79861 40.1661L11.2311 34.3064Z" fill="white"/>
<path d="M19.5651 29.02L19.9209 29.3252C20.41 29.7449 20.7941 30.185 21.0731 30.6457C21.3521 31.1064 21.5263 31.5723 21.5956 32.0435C21.6674 32.5117 21.6348 32.9727 21.4977 33.4264C21.3577 33.8776 21.116 34.3033 20.7726 34.7035C20.4318 35.1008 20.0491 35.4029 19.6245 35.6099C19.1994 35.8114 18.7475 35.9152 18.2687 35.9214C17.7899 35.9275 17.2991 35.8307 16.7963 35.6309C16.296 35.4282 15.8013 35.1169 15.3121 34.6973L14.9563 34.3921C14.4671 33.9724 14.0858 33.532 13.8123 33.0709C13.5358 32.6073 13.363 32.1399 13.2937 31.6687C13.224 31.192 13.2579 30.7295 13.3954 30.2813C13.5324 29.8276 13.7713 29.4021 14.1122 29.0049C14.4555 28.6046 14.841 28.3023 15.2686 28.0978C15.6932 27.8908 16.1452 27.787 16.6244 27.7864C17.1006 27.7832 17.5876 27.8845 18.0853 28.0902C18.5827 28.2904 19.0759 28.6003 19.5651 29.02ZM18.9632 30.4414L18.5986 30.1286C18.2369 29.8183 17.8877 29.5804 17.5509 29.415C17.2137 29.2441 16.8932 29.1468 16.5894 29.1229C16.2853 29.0935 16.0018 29.136 15.739 29.2503C15.4733 29.362 15.2349 29.5409 15.0238 29.787C14.8127 30.033 14.6734 30.2944 14.6059 30.571C14.5355 30.8451 14.5366 31.1318 14.6094 31.4309C14.6817 31.7246 14.8267 32.0265 15.0443 32.3368C15.259 32.6445 15.5472 32.9535 15.9089 33.2638L16.2735 33.5766C16.6352 33.8869 16.9859 34.126 17.3257 34.294C17.6654 34.4619 17.9901 34.5603 18.2998 34.5893C18.6091 34.6127 18.8953 34.5701 19.1585 34.4613C19.4187 34.35 19.6543 34.1713 19.8654 33.9252C20.0791 33.6762 20.2211 33.4146 20.2916 33.1405C20.3591 32.8639 20.3552 32.5774 20.2799 32.2812C20.2016 31.9825 20.0524 31.6795 19.8322 31.3722C19.6146 31.062 19.3249 30.7517 18.9632 30.4414Z" fill="white"/>
<path d="M22.368 19.9303L23.4866 18.9846L27.1672 23.3386C27.5859 23.8338 27.829 24.3392 27.8967 24.8549C27.9643 25.3706 27.8851 25.8698 27.6589 26.3525C27.4332 26.8298 27.0936 27.26 26.6402 27.6434C26.1718 28.0393 25.6836 28.3088 25.1754 28.4519C24.6648 28.5921 24.1623 28.5846 23.668 28.4296C23.1768 28.272 22.7218 27.9456 22.3032 27.4504L18.6226 23.0965L19.7413 22.1508L23.4219 26.5047C23.6867 26.8179 23.9585 27.0306 24.2374 27.1427C24.5138 27.2517 24.7907 27.2708 25.0683 27.1998C25.3459 27.1288 25.6189 26.9799 25.8874 26.7529C26.1559 26.5259 26.3467 26.2828 26.46 26.0234C26.5761 25.7615 26.6035 25.4852 26.5419 25.1945C26.4778 24.9009 26.3134 24.5975 26.0486 24.2842L22.368 19.9303Z" fill="white"/>
<path d="M33.182 18.602L34.4377 17.8477C34.6851 18.3507 34.8076 18.858 34.8052 19.3699C34.8008 19.8783 34.657 20.3634 34.3739 20.8251C34.0908 21.2869 33.6545 21.6947 33.0652 22.0488C32.6131 22.3203 32.158 22.4844 31.6998 22.5409C31.2396 22.594 30.7911 22.549 30.3542 22.4059C29.9153 22.2594 29.4995 22.0148 29.1068 21.672C28.7174 21.3272 28.3648 20.8919 28.049 20.3662L27.6839 19.7585C27.3681 19.2327 27.1511 18.716 27.0329 18.2083C26.9181 17.6985 26.9008 17.2145 26.9809 16.7563C27.0591 16.2947 27.2323 15.8739 27.5008 15.4939C27.7726 15.1119 28.1378 14.7831 28.5966 14.5075C29.1792 14.1575 29.7358 13.969 30.2664 13.9419C30.7969 13.9148 31.2864 14.0241 31.7347 14.2697C32.1863 14.5133 32.5841 14.8645 32.928 15.3232L31.6723 16.0775C31.4497 15.7829 31.2142 15.5576 30.9655 15.4016C30.7203 15.2436 30.4536 15.1714 30.1655 15.185C29.8755 15.1952 29.5546 15.3059 29.203 15.5171C28.9151 15.6901 28.6961 15.8945 28.5462 16.1304C28.3962 16.3663 28.3116 16.6313 28.2924 16.9254C28.2731 17.2195 28.3181 17.541 28.4275 17.89C28.5382 18.2336 28.7103 18.5996 28.9436 18.9881L29.3147 19.6059C29.536 19.9742 29.7689 20.29 30.0136 20.5531C30.2596 20.8109 30.5139 21.0067 30.7766 21.1406C31.0426 21.2724 31.3163 21.3335 31.5977 21.324C31.879 21.3145 32.1671 21.2212 32.4617 21.0442C32.82 20.829 33.0755 20.5981 33.2281 20.3514C33.3841 20.1028 33.4536 19.8355 33.4367 19.5494C33.4211 19.258 33.3362 18.9422 33.182 18.602Z" fill="white"/>
<path d="M40.4697 11.9803L40.8835 13.0705L36.6489 14.6775L36.2351 13.5874L40.4697 11.9803ZM35.3108 10.1278L38.3378 18.1039L36.9628 18.6258L33.9357 10.6496L35.3108 10.1278ZM40.263 8.24835L43.29 16.2245L41.9205 16.7443L38.8935 8.7681L40.263 8.24835Z" fill="white"/>
<circle cx="54.5" cy="8.5" r="1.5" fill="white"/>
<circle cx="116.5" cy="82.5" r="1.5" fill="white"/>
<circle cx="21.5" cy="100.5" r="1.5" fill="white"/>
</svg>
